<svg width="19" height="10" viewBox="0 0 19 10" fill="none" xmlns="http://www.w3.org/2000/svg">
<path d="M0.999983 6.00567L15.59 6.00567L13.29 8.29567C13.1967 8.38891 13.1228 8.4996 13.0723 8.62142C13.0219 8.74325 12.9959 8.87381 12.9959 9.00567C12.9959 9.13753 13.0219 9.2681 13.0723 9.38992C13.1228 9.51174 13.1967 9.62243 13.29 9.71567C13.3832 9.80891 13.4939 9.88287 13.6157 9.93333C13.7376 9.98379 13.8681 10.0098 14 10.0098C14.1318 10.0098 14.2624 9.98379 14.3842 9.93333C14.5061 9.88287 14.6167 9.80891 14.71 9.71567L18.71 5.71567C18.801 5.62057 18.8724 5.50843 18.92 5.38567C19.02 5.14221 19.02 4.86913 18.92 4.62567C18.8724 4.50292 18.801 4.39078 18.71 4.29567L14.71 0.295675C14.617 0.201947 14.5064 0.127551 14.3846 0.0767818C14.2627 0.026013 14.132 -0.000124403 14 -0.000124414C13.868 -0.000124426 13.7373 0.0260129 13.6154 0.0767818C13.4935 0.127551 13.3829 0.201947 13.29 0.295675C13.1963 0.388638 13.1219 0.499238 13.0711 0.621097C13.0203 0.742957 12.9942 0.873662 12.9942 1.00567C12.9942 1.13769 13.0203 1.26839 13.0711 1.39025C13.1219 1.51211 13.1963 1.62271 13.29 1.71567L15.59 4.00567L0.999983 4.00567C0.734767 4.00567 0.480412 4.11103 0.292876 4.29857C0.10534 4.4861 -1.67055e-05 4.74046 -1.67287e-05 5.00567C-1.67519e-05 5.27089 0.105339 5.52524 0.292876 5.71278C0.480412 5.90032 0.734766 6.00567 0.999983 6.00567Z" fill="#111826"/>
</svg>
