<svg width="67" height="67" viewBox="0 0 67 67" fill="none" xmlns="http://www.w3.org/2000/svg">
<rect width="67" height="67" rx="33.5" fill="#304F8C" fill-opacity="0.1"/>
<path d="M35.6154 31.598H37.7692C38.2152 31.598 38.5769 31.2364 38.5769 30.7903C38.5769 30.3443 38.2152 29.9826 37.7692 29.9826H35.6154C35.1694 29.9826 34.8077 30.3443 34.8077 30.7903C34.8077 31.2364 35.1694 31.598 35.6154 31.598Z" fill="#4C5D73"/>
<path d="M47.1923 32.6384H41.2692V20.8617C41.2692 20.3858 40.9075 20 40.4615 20H27.5385C27.0925 20 26.7308 20.3858 26.7308 20.8617V32.6384H20.8077C20.3617 32.6384 20 33.024 20 33.4999V46.1383C20 46.6142 20.3617 47 20.8077 47H47.1923C47.6383 47 48 46.6142 48 46.1383V33.4999C48 33.024 47.6383 32.6384 47.1923 32.6384ZM39.1154 34.3616H41.8077V38.383H39.1154V34.3616ZM35.3463 21.7234V25.7446H32.6537V21.7234H35.3463ZM28.3463 21.7234H31.0385V26.6064C31.0385 27.0822 31.4 27.4681 31.8463 27.4681H36.1537C36.6 27.4681 36.9615 27.0822 36.9615 26.6064V21.7234H39.6537V32.6384H28.3463V21.7234ZM28.6154 34.3616V38.383H25.9231V34.3616H28.6154ZM21.6154 34.3616H24.3077V39.2448C24.3077 39.7206 24.6694 40.1065 25.1154 40.1065H29.4231C29.8692 40.1065 30.2308 39.7206 30.2308 39.2448V34.3616H33.1923V45.2766H21.6154V34.3616ZM46.3846 45.2766H34.8077V34.3616H37.5V39.2448C37.5 39.7206 37.8617 40.1065 38.3077 40.1065H42.6154C43.0615 40.1065 43.4231 39.7206 43.4231 39.2448V34.3616H46.3846V45.2766Z" fill="#4C5D73"/>
<path d="M42.3463 41.8287C41.9 41.8287 41.5385 42.1903 41.5385 42.6364C41.5385 43.0824 41.9 43.4441 42.3463 43.4441H44.5C44.946 43.4441 45.3077 43.0824 45.3077 42.6364C45.3077 42.1903 44.946 41.8287 44.5 41.8287H42.3463Z" fill="#4C5D73"/>
<path d="M31.0385 41.8287H28.8846C28.4385 41.8287 28.0769 42.1903 28.0769 42.6364C28.0769 43.0824 28.4385 43.4441 28.8846 43.4441H31.0385C31.4846 43.4441 31.8463 43.0824 31.8463 42.6364C31.8463 42.1903 31.4846 41.8287 31.0385 41.8287Z" fill="#4C5D73"/>
</svg>
