<svg width="105" height="105" viewBox="0 0 105 105" fill="none" xmlns="http://www.w3.org/2000/svg">
<rect width="105" height="105" rx="52.5" fill="#304F8C" fill-opacity="0.1"/>
<path d="M60.6609 47.0106C59.2265 45.5763 58.5414 43.5212 58.8283 41.5131C59.0842 39.7222 58.8777 37.8824 58.2315 36.1926L57.0118 33.0038C57.3647 32.8446 57.6109 32.4905 57.6109 32.0781V29.6406C57.6109 28.1846 56.4264 27 54.9703 27H51.0314C49.5753 27 48.3908 28.1846 48.3908 29.6406V32.0781C48.3908 32.4899 48.6363 32.8436 48.9884 33.0031L47.7685 36.1926C47.1223 37.8824 46.9158 39.7222 47.1717 41.5131C47.4585 43.5212 46.7735 45.5763 45.3391 47.0106C43.7318 48.618 42.8466 50.7551 42.8466 53.0281V73.9219C42.8466 76.722 45.1246 79 47.9247 79H58.0752C60.8753 79 63.1533 76.722 63.1533 73.9219V53.0281C63.1534 50.7551 62.2682 48.618 60.6609 47.0106ZM49.1039 40.3552C49.0569 39.1868 49.2469 38.0136 49.6657 36.9183L51.1284 33.0938H54.8715L56.3342 36.9183C56.7532 38.0142 56.9432 39.188 56.8959 40.357L53.0007 44.2522L49.1039 40.3552ZM50.422 29.6406C50.422 29.3046 50.6953 29.0312 51.0314 29.0312H54.9703C55.3064 29.0312 55.5797 29.3046 55.5797 29.6406V31.0625H55.5704H50.4294H50.422V29.6406ZM57.5703 61.2407H61.0679C61.1026 61.5446 61.1222 61.8529 61.1222 62.1659V64.7842C61.1222 65.0972 61.1026 65.4056 61.0679 65.7094H44.9322C44.8975 65.4056 44.8779 65.0972 44.8779 64.7842V62.1659C44.8779 61.8529 44.8975 61.5446 44.9322 61.2407H57.4297C57.9905 61.2407 58.4453 60.786 58.4453 60.2251C58.4453 59.6641 57.9905 59.2094 57.4297 59.2094H45.4373C46.6223 56.1891 49.5643 54.0439 53 54.0439C56.4357 54.0439 59.3776 56.1891 60.5626 59.2094H57.5703C57.0095 59.2094 56.5547 59.6641 56.5547 60.2251C56.5547 60.786 57.0095 61.2407 57.5703 61.2407ZM60.5626 67.7407C59.3776 70.761 56.4356 72.9062 53 72.9062C49.5644 72.9062 46.6224 70.761 45.4373 67.7407H60.5626ZM61.1222 73.9219C61.1222 75.6019 59.7553 76.9688 58.0753 76.9688H47.9248C46.2448 76.9688 44.8779 75.6019 44.8779 73.9219V70.8702C46.7319 73.3382 49.6826 74.9375 53 74.9375C56.3174 74.9375 59.2681 73.3382 61.1222 70.8702V73.9219ZM53 52.0125C49.6826 52.0125 46.7319 53.6118 44.8778 56.0798V53.0281C44.8778 51.2975 45.5518 49.6706 46.7755 48.4469C48.1554 47.067 49.0065 45.2496 49.2156 43.3395L52.2828 46.4067C52.4811 46.605 52.741 46.7041 53.0009 46.7041C53.2608 46.7041 53.5207 46.605 53.7191 46.4067L56.7846 43.3411C56.994 45.2506 57.845 47.0673 59.2245 48.4469C60.4482 49.6706 61.1222 51.2975 61.1222 53.0281V56.0798C59.2681 53.6119 56.3174 52.0125 53 52.0125Z" fill="#4C5D73"/>
</svg>
