<svg width="94" height="20" viewBox="0 0 94 20" fill="none" xmlns="http://www.w3.org/2000/svg">
<path d="M93 0.414062H90.2121C88.9798 0.414063 87.7979 0.903599 86.9266 1.77498C86.0552 2.64636 85.5656 3.82821 85.5656 5.06053V7.84841H82.7778V11.5656H85.5656V18.9999H89.2828V11.5656H92.0707L93 7.84841H89.2828V5.06053C89.2828 4.81406 89.3807 4.57769 89.555 4.40342C89.7293 4.22914 89.9657 4.13123 90.2121 4.13123H93V0.414062Z" stroke="white" stroke-width="0.8" stroke-linecap="round" stroke-linejoin="round"/>
<path d="M14.9394 0.414062H5.64646C3.08029 0.414062 1 2.49436 1 5.06053V14.3535C1 16.9196 3.08029 18.9999 5.64646 18.9999H14.9394C17.5056 18.9999 19.5859 16.9196 19.5859 14.3535V5.06053C19.5859 2.49436 17.5056 0.414062 14.9394 0.414062Z" stroke="white" stroke-width="0.8" stroke-linecap="round" stroke-linejoin="round"/>
<path d="M14.01 9.12163C14.1247 9.89504 13.9926 10.6849 13.6325 11.3789C13.2724 12.0729 12.7027 12.6357 12.0043 12.9872C11.3059 13.3387 10.5145 13.4611 9.74253 13.3368C8.97061 13.2126 8.2575 12.8482 7.70464 12.2953C7.15179 11.7425 6.78733 11.0294 6.66312 10.2574C6.53891 9.4855 6.66126 8.69406 7.01277 7.99568C7.36429 7.2973 7.92707 6.72754 8.62106 6.36744C9.31506 6.00733 10.1049 5.87523 10.8783 5.98992C11.6672 6.1069 12.3976 6.47451 12.9615 7.03844C13.5255 7.60238 13.8931 8.33274 14.01 9.12163Z" stroke="white" stroke-linecap="round" stroke-linejoin="round"/>
<path d="M15.4041 4.59595H15.4141" stroke="white" stroke-width="1.8" stroke-linecap="round" stroke-linejoin="round"/>
<path d="M54.6544 6.2832C56.211 6.2832 57.7039 6.90157 58.8046 8.00226C59.9053 9.10295 60.5237 10.5958 60.5237 12.1524V18.9998H56.6108V12.1524C56.6108 11.6336 56.4047 11.1359 56.0378 10.769C55.6709 10.4021 55.1733 10.196 54.6544 10.196C54.1356 10.196 53.6379 10.4021 53.271 10.769C52.9042 11.1359 52.698 11.6336 52.698 12.1524V18.9998H48.7852V12.1524C48.7852 10.5958 49.4036 9.10295 50.5043 8.00226C51.605 6.90157 53.0978 6.2832 54.6544 6.2832V6.2832Z" stroke="white" stroke-width="0.8" stroke-linecap="round" stroke-linejoin="round"/>
<path d="M44.8724 7.2616H40.9596V19H44.8724V7.2616Z" stroke="white" stroke-width="0.8" stroke-linecap="round" stroke-linejoin="round"/>
<path d="M42.916 4.32687C43.9965 4.32687 44.8724 3.45096 44.8724 2.37047C44.8724 1.28998 43.9965 0.414062 42.916 0.414062C41.8355 0.414062 40.9596 1.28998 40.9596 2.37047C40.9596 3.45096 41.8355 4.32687 42.916 4.32687Z" stroke="white" stroke-width="0.8" stroke-linecap="round" stroke-linejoin="round"/>
</svg>
