<svg width="105" height="105" viewBox="0 0 105 105" fill="none" xmlns="http://www.w3.org/2000/svg">
<rect width="105" height="105" rx="52.5" fill="#304F8C" fill-opacity="0.1"/>
<path d="M80.482 52.2853C80.307 50.6517 79.8986 47.5013 79.2569 44.876C78.3234 41.0255 75.7564 37 73.0728 37C72.4893 37 71.9643 37.4667 71.9643 38.1085V52.9854L71.2642 64.1868C71.2058 65.2953 71.6142 66.3454 72.3143 67.1622C73.0728 67.9789 74.1229 68.4457 75.2314 68.4457C76.3398 68.4457 77.39 67.9789 78.1484 67.1622C78.9068 66.3454 79.3152 65.2953 79.1985 64.1868L78.5568 54.2689H78.6735C79.1985 54.2689 79.6653 54.0355 80.0153 53.6854C80.3653 53.2771 80.5404 52.752 80.482 52.2853ZM74.1229 39.8004C75.2314 40.7921 76.4565 42.8924 77.0983 45.4011C77.6817 47.7347 78.0317 50.5934 78.2067 52.0519H74.1229V39.8004ZM76.9816 64.3035C77.0399 64.8285 76.8649 65.2953 76.5149 65.6453C76.1648 65.9953 75.6981 66.2287 75.2314 66.2287C74.7063 66.2287 74.2979 66.0537 73.9479 65.6453C73.5978 65.2953 73.4228 64.8285 73.4811 64.3035L74.1229 54.2689H76.4565L76.9816 64.3035Z" fill="#4C5D73"/>
<path d="M34.5679 37.2917C33.9845 37.2917 33.4594 37.7585 33.4594 38.4002V46.6846C33.4594 47.093 33.1094 47.5014 32.6426 47.5014H31.4175V38.4002C31.4175 37.8168 30.9508 37.2917 30.309 37.2917C29.6673 37.2917 29.2005 37.7585 29.2005 38.4002V47.5014H28.0337C27.6253 47.5014 27.2169 47.1513 27.2169 46.6846V38.4002C27.2169 37.8168 26.7502 37.2917 26.1085 37.2917C25.4667 37.2917 25 37.7585 25 38.4002V46.6846C25 48.0848 25.9335 49.2516 27.2169 49.6016L26.4002 64.1285C26.3418 65.237 26.7502 66.2871 27.4503 67.1039C28.2087 67.9206 29.2589 68.3874 30.3673 68.3874C31.4758 68.3874 32.526 67.9206 33.2844 67.1039C34.0428 66.2871 34.4512 65.237 34.3345 64.1285L33.4594 49.6016C34.7429 49.2516 35.6764 48.0848 35.6764 46.6846V38.4002C35.6764 37.8168 35.1513 37.2917 34.5679 37.2917ZM31.6508 65.587C31.3008 65.937 30.8341 66.1704 30.3673 66.1704C29.8423 66.1704 29.4339 65.9954 29.0839 65.587C28.7338 65.237 28.5588 64.7702 28.6171 64.2452L29.4922 49.66H31.2425L32.1176 64.2452C32.1759 64.7702 32.0009 65.237 31.6508 65.587Z" fill="#4C5D73"/>
<path d="M53.4703 37.175C44.8942 37.175 37.9516 44.1175 37.9516 52.6936C37.9516 61.2697 44.8942 68.2123 53.4703 68.2123C62.0464 68.2123 68.9889 61.2697 68.9889 52.6936C68.9889 44.1175 62.0464 37.175 53.4703 37.175ZM53.4703 65.9953C46.1193 65.9953 40.1686 60.0446 40.1686 52.6936C40.1686 45.3427 46.1193 39.3919 53.4703 39.3919C60.8212 39.3919 66.8303 45.3427 66.8303 52.6936C66.8303 60.0446 60.8212 65.9953 53.4703 65.9953Z" fill="#4C5D73"/>
<path d="M53.4703 42.2507C47.6945 42.2507 43.0273 46.9179 43.0273 52.6937C43.0273 58.4694 47.6945 63.1367 53.4703 63.1367C59.246 63.1367 63.9133 58.4694 63.9133 52.6937C63.9133 46.9179 59.246 42.2507 53.4703 42.2507ZM53.4703 60.9197C48.9197 60.9197 45.2442 57.2442 45.2442 52.6937C45.2442 48.1431 48.9197 44.4676 53.4703 44.4676C58.0209 44.4676 61.6963 48.1431 61.6963 52.6937C61.6963 57.2442 58.0209 60.9197 53.4703 60.9197Z" fill="#4C5D73"/>
</svg>
