<svg width="67" height="67" viewBox="0 0 67 67" fill="none" xmlns="http://www.w3.org/2000/svg">
<rect width="67" height="67" rx="33.5" fill="#304F8C" fill-opacity="0.1"/>
<path d="M28.05 38.4C28.4876 38.4 28.9073 38.2262 29.2167 37.9167C29.5262 37.6073 29.7 37.1876 29.7 36.75C29.7054 36.6951 29.7054 36.6399 29.7 36.585L32.769 33.516H33.022H33.275L35.046 35.287C35.046 35.287 35.046 35.342 35.046 35.375C35.046 35.8126 35.2198 36.2323 35.5293 36.5417C35.8387 36.8512 36.2584 37.025 36.696 37.025C37.1336 37.025 37.5533 36.8512 37.8627 36.5417C38.1722 36.2323 38.346 35.8126 38.346 35.375V35.287L42.35 31.25C42.6763 31.25 42.9953 31.1532 43.2667 30.9719C43.538 30.7906 43.7495 30.5329 43.8744 30.2314C43.9993 29.9299 44.032 29.5982 43.9683 29.2781C43.9046 28.958 43.7475 28.664 43.5167 28.4333C43.286 28.2025 42.992 28.0454 42.6719 27.9817C42.3518 27.918 42.0201 27.9507 41.7186 28.0756C41.4171 28.2005 41.1594 28.412 40.9781 28.6833C40.7968 28.9547 40.7 29.2737 40.7 29.6C40.6946 29.6549 40.6946 29.7101 40.7 29.765L36.729 33.736H36.553L34.65 31.8C34.65 31.3624 34.4762 30.9427 34.1667 30.6333C33.8573 30.3238 33.4376 30.15 33 30.15C32.5624 30.15 32.1427 30.3238 31.8333 30.6333C31.5238 30.9427 31.35 31.3624 31.35 31.8L28.05 35.1C27.6124 35.1 27.1927 35.2738 26.8833 35.5833C26.5738 35.8927 26.4 36.3124 26.4 36.75C26.4 37.1876 26.5738 37.6073 26.8833 37.9167C27.1927 38.2262 27.6124 38.4 28.05 38.4ZM42.9 42.8H24.2V24.1C24.2 23.8083 24.0841 23.5285 23.8778 23.3222C23.6715 23.1159 23.3917 23 23.1 23C22.8083 23 22.5285 23.1159 22.3222 23.3222C22.1159 23.5285 22 23.8083 22 24.1V43.9C22 44.1917 22.1159 44.4715 22.3222 44.6778C22.5285 44.8841 22.8083 45 23.1 45H42.9C43.1917 45 43.4715 44.8841 43.6778 44.6778C43.8841 44.4715 44 44.1917 44 43.9C44 43.6083 43.8841 43.3285 43.6778 43.1222C43.4715 42.9159 43.1917 42.8 42.9 42.8Z" fill="#4C5D73"/>
</svg>
