<svg width="36" height="36" viewBox="0 0 36 36" fill="none" xmlns="http://www.w3.org/2000/svg">
<path d="M13.7956 9.02693C12.4651 7.98067 10.5267 8.0703 9.30046 9.2965C8.07426 10.5227 7.98463 12.4612 9.03089 13.7916C5.95577 20.3258 10.7512 27.9004 17.9993 27.9004C19.5016 27.9004 20.927 27.5645 22.2037 26.963C23.5371 28.0118 25.475 27.9172 26.6981 26.6941C27.9243 25.4679 28.0139 23.5293 26.9677 22.199C27.5685 20.9223 27.9044 19.497 27.9044 17.9953C27.9043 10.7445 20.3269 5.95314 13.7956 9.02693ZM11.6997 10.2949C12.9486 10.2949 13.5642 11.8123 12.6902 12.6862C12.1464 13.23 11.2566 13.2343 10.7085 12.6862C9.83899 11.8166 10.4401 10.2949 11.6997 10.2949ZM24.2251 25.6936C23.0181 25.6312 22.4532 24.1595 23.3083 23.3043C23.8474 22.7639 24.7362 22.7505 25.2901 23.3043C26.1851 24.1994 25.5167 25.763 24.2251 25.6936ZM25.298 21.0531C22.6937 20.2559 20.2591 22.6871 21.0571 25.2939C14.5312 28.0369 7.97573 21.4203 10.7006 14.9374C13.3096 15.7377 15.7374 13.2965 14.9414 10.6966C21.4213 7.97296 28.0419 14.5247 25.298 21.0531Z" fill="#111826" stroke="black"/>
<path d="M17.9992 1C13.4596 1 9.19153 2.76792 5.98169 5.97775C-0.660465 12.62 -0.660664 23.3705 5.98169 30.0128C9.19159 33.2227 13.4596 34.9906 17.9992 34.9906C27.3926 34.9906 34.9945 27.3894 34.9945 17.9953C34.9945 8.60184 27.3933 1 17.9992 1ZM17.9992 32.999C9.72594 32.999 2.99555 26.2686 2.99555 17.9953C2.99555 9.722 9.72594 2.9916 17.9992 2.9916C26.2725 2.9916 33.0029 9.722 33.0029 17.9953C33.0029 26.2686 26.2725 32.999 17.9992 32.999Z" fill="#111826" stroke="black"/>
<path d="M17.9992 14.4562C16.0473 14.4562 14.46 16.0435 14.46 17.9953C14.46 19.9472 16.0473 21.5345 17.9992 21.5345C19.9509 21.5345 21.5383 19.9472 21.5383 17.9953C21.5383 16.0435 19.9509 14.4562 17.9992 14.4562ZM17.9992 19.5428C17.1461 19.5428 16.4517 18.8484 16.4517 17.9953C16.4517 17.1423 17.1461 16.4478 17.9992 16.4478C18.8522 16.4478 19.5467 17.1423 19.5467 17.9953C19.5467 18.8484 18.8522 19.5428 17.9992 19.5428Z" fill="#111826" stroke="black"/>
</svg>
