<svg width="105" height="105" viewBox="0 0 105 105" fill="none" xmlns="http://www.w3.org/2000/svg">
<rect width="105" height="105" rx="52.5" fill="#304F8C" fill-opacity="0.1"/>
<path d="M57.2622 55.7617C56.5299 55.7617 55.9699 56.3217 55.9699 57.054V58.5185C55.9699 60.4139 54.4192 61.9646 52.5238 61.9646C50.6285 61.9646 49.0778 60.4139 49.0778 58.5185V57.054C49.0778 56.3217 48.5178 55.7617 47.7855 55.7617C47.0532 55.7617 46.4933 56.3217 46.4933 57.054V58.5185C46.4933 61.8353 49.207 64.5491 52.5238 64.5491C55.8407 64.5491 58.5544 61.8353 58.5544 58.5185V57.054C58.5544 56.3217 57.9944 55.7617 57.2622 55.7617Z" fill="#4C5D73"/>
<path d="M72.0371 71.3981L68.8926 50.4634C68.8926 50.3772 68.8495 50.2911 68.8495 50.2049L66.7388 44.5189C66.5665 44.002 66.0496 43.6574 65.5327 43.6574H62.1728L62.6897 39.8237C63.0343 37.3253 61.2682 34.9992 58.7698 34.6546L58.0806 34.5685C55.8407 34.2669 53.6869 35.6023 52.9977 37.7991L52.4377 39.6514L49.8531 32.8454C49.6378 32.2424 48.9916 31.8978 48.3886 32.027L42.1857 33.3193C41.4965 33.4485 41.0657 34.1377 41.1949 34.8269L42.8749 43.6574H39.515C38.955 43.6574 38.4812 44.002 38.3089 44.5189L36.2412 50.248C36.1982 50.2911 36.1551 50.3772 36.1551 50.4634L33.0106 71.3981C32.9675 71.7858 33.0537 72.1304 33.3121 72.4319C33.5706 72.7335 33.9152 72.8627 34.3028 72.8627H70.7448C71.1325 72.8627 71.4771 72.6904 71.7356 72.4319C71.994 72.1735 72.0802 71.7858 72.0371 71.3981ZM64.6281 46.242L65.9634 49.8603H61.3543L61.8282 46.242H64.6281ZM55.453 38.5314C55.7545 37.5838 56.7022 36.9807 57.6929 37.1099L58.3821 37.1961C59.459 37.3684 60.2344 38.3591 60.1051 39.4791L58.7267 49.8603H51.9639L55.453 38.5314ZM47.7855 34.7838L51.1454 43.6574L49.207 49.9034H46.7086L43.9518 35.6023L47.7855 34.7838ZM40.4196 46.242H43.3918L44.081 49.8603H39.0842L40.4196 46.242ZM35.8105 70.3212L38.4812 52.4879H66.5665L69.2372 70.3212H35.8105Z" fill="#4C5D73"/>
</svg>
