<svg width="105" height="105" viewBox="0 0 105 105" fill="none" xmlns="http://www.w3.org/2000/svg">
<rect width="105" height="105" rx="52.5" fill="#304F8C" fill-opacity="0.1"/>
<g clip-path="url(#clip0_104_2)">
<path d="M52.0001 64.0744C51.5955 64.0744 51.2168 63.8755 50.9872 63.5425L37.8622 44.5113C37.6026 44.1349 37.5732 43.6456 37.7858 43.2407C37.9983 42.8359 38.4179 42.5823 38.8751 42.5823H65.125C65.5822 42.5823 66.0017 42.8359 66.2144 43.2407C66.427 43.6456 66.3974 44.1349 66.1379 44.5113L53.013 63.5425C52.7832 63.8755 52.4046 64.0744 52.0001 64.0744ZM41.2184 45.0432L52 60.6766L62.7816 45.0432H41.2184Z" fill="#4C5D73"/>
<path d="M52 74.0001C51.3205 74.0001 50.7696 73.4491 50.7696 72.7696V62.8438C50.7696 62.1643 51.3205 61.6133 52 61.6133C52.6796 61.6133 53.2305 62.1643 53.2305 62.8438V72.7696C53.2305 73.4491 52.6796 74.0001 52 74.0001Z" fill="#4C5D73"/>
<path d="M61.1875 74H42.8126C42.133 74 41.5821 73.4491 41.5821 72.7695C41.5821 72.09 42.133 71.5391 42.8126 71.5391H61.1875C61.867 71.5391 62.4179 72.09 62.4179 72.7695C62.4179 73.4491 61.867 74 61.1875 74Z" fill="#4C5D73"/>
<path d="M51.999 55.5433C51.8147 55.5433 51.6277 55.5018 51.4514 55.414C50.8432 55.1111 50.5956 54.3724 50.8986 53.7641L61.3985 32.6822C61.7014 32.0739 62.4401 31.8263 63.0485 32.1293C63.6568 32.4323 63.9043 33.1711 63.6013 33.7793L53.1014 54.8612C52.8862 55.2933 52.4511 55.5433 51.999 55.5433Z" fill="#4C5D73"/>
<path d="M59.7499 52.8354C59.5154 52.8354 59.2784 52.7685 59.0686 52.6287L57.2237 51.399C56.4422 50.8778 55.4326 50.8778 54.6514 51.3989C53.0406 52.4727 50.9593 52.4727 49.3487 51.3989C48.5674 50.8781 47.5576 50.8781 46.7764 51.3989L44.9313 52.6287C44.3658 53.0056 43.6019 52.8527 43.225 52.2873C42.8481 51.7218 43.001 50.9578 43.5664 50.5809L45.4113 49.3513C47.0217 48.2776 49.1032 48.2776 50.7138 49.3514C51.4951 49.8723 52.5047 49.8723 53.2862 49.3514C54.8968 48.2773 56.9783 48.2774 58.5889 49.3515L60.4335 50.5809C60.999 50.9578 61.1518 51.7217 60.7749 52.2873C60.5379 52.6429 60.1476 52.8354 59.7499 52.8354Z" fill="#4C5D73"/>
</g>
<defs>
<clipPath id="clip0_104_2">
<rect width="42" height="42" fill="white" transform="translate(31 32)"/>
</clipPath>
</defs>
</svg>
