<svg width="20" height="11" viewBox="0 0 20 11" fill="none" xmlns="http://www.w3.org/2000/svg">
<path d="M1.12305 6.00579L15.713 6.0058L13.413 8.2958C13.3198 8.38903 13.2458 8.49972 13.1954 8.62155C13.1449 8.74337 13.119 8.87394 13.119 9.0058C13.119 9.13765 13.1449 9.26822 13.1954 9.39004C13.2458 9.51187 13.3198 9.62256 13.413 9.7158C13.5063 9.80903 13.617 9.88299 13.7388 9.93345C13.8606 9.98392 13.9912 10.0099 14.123 10.0099C14.2549 10.0099 14.3855 9.98392 14.5073 9.93346C14.6291 9.88299 14.7398 9.80903 14.833 9.7158L18.833 5.7158C18.9241 5.62069 18.9954 5.50855 19.043 5.3858C19.1431 5.14233 19.1431 4.86926 19.043 4.6258C18.9954 4.50304 18.9241 4.3909 18.833 4.2958L14.833 0.295797C14.7401 0.202069 14.6295 0.127673 14.5076 0.0769039C14.3858 0.026135 14.2551 -2.33249e-06 14.123 -2.34403e-06C13.991 -2.35557e-06 13.8603 0.026135 13.7385 0.0769038C13.6166 0.127673 13.506 0.202069 13.413 0.295797C13.3193 0.38876 13.2449 0.49936 13.1942 0.621219C13.1434 0.743079 13.1172 0.873784 13.1172 1.0058C13.1172 1.13781 13.1434 1.26851 13.1942 1.39037C13.2449 1.51223 13.3193 1.62283 13.413 1.7158L15.713 4.0058L1.12305 4.00579C0.857829 4.00579 0.603474 4.11115 0.415938 4.29869C0.228402 4.48622 0.123045 4.74058 0.123045 5.00579C0.123045 5.27101 0.228402 5.52536 0.415938 5.7129C0.603474 5.90044 0.857828 6.00579 1.12305 6.00579Z" fill="#304F8C"/>
</svg>
