<svg width="67" height="67" viewBox="0 0 67 67" fill="none" xmlns="http://www.w3.org/2000/svg">
<rect width="67" height="67" rx="33.5" fill="#304F8C" fill-opacity="0.1"/>
<path d="M34.344 33.7459C34.9269 33.2297 35.3944 32.5912 35.7149 31.8738C36.0353 31.1565 36.2011 30.377 36.2011 29.5882C36.2011 28.1061 35.6256 26.6848 34.6013 25.6368C33.577 24.5888 32.1877 24 30.7391 24C29.2905 24 27.9013 24.5888 26.8769 25.6368C25.8526 26.6848 25.2772 28.1061 25.2772 29.5882C25.2772 30.377 25.443 31.1565 25.7634 31.8738C26.0839 32.5912 26.5514 33.2297 27.1342 33.7459C25.605 34.4543 24.3076 35.5984 23.3971 37.0413C22.4867 38.4842 22.0016 40.1649 22 41.8824C22 42.1788 22.1151 42.4631 22.32 42.6726C22.5248 42.8822 22.8027 43 23.0924 43C23.3821 43 23.66 42.8822 23.8648 42.6726C24.0697 42.4631 24.1848 42.1788 24.1848 41.8824C24.1848 40.1038 24.8753 38.3982 26.1045 37.1406C27.3337 35.883 29.0008 35.1765 30.7391 35.1765C32.4775 35.1765 34.1446 35.883 35.3738 37.1406C36.6029 38.3982 37.2935 40.1038 37.2935 41.8824C37.2935 42.1788 37.4086 42.4631 37.6134 42.6726C37.8183 42.8822 38.0962 43 38.3859 43C38.6756 43 38.9535 42.8822 39.1583 42.6726C39.3632 42.4631 39.4783 42.1788 39.4783 41.8824C39.4767 40.1649 38.9916 38.4842 38.0811 37.0413C37.1706 35.5984 35.8732 34.4543 34.344 33.7459ZM30.7391 32.9412C30.091 32.9412 29.4574 32.7445 28.9184 32.3761C28.3795 32.0077 27.9595 31.484 27.7114 30.8714C27.4634 30.2587 27.3985 29.5845 27.5249 28.9341C27.6514 28.2837 27.9635 27.6863 28.4218 27.2173C28.8801 26.7484 29.4641 26.4291 30.0998 26.2997C30.7355 26.1703 31.3944 26.2367 31.9933 26.4905C32.5921 26.7443 33.1039 27.1741 33.464 27.7254C33.8241 28.2768 34.0163 28.9251 34.0163 29.5882C34.0163 30.4775 33.671 31.3303 33.0565 31.9591C32.4419 32.5879 31.6083 32.9412 30.7391 32.9412ZM41.379 33.2988C42.0781 32.4934 42.5348 31.4984 42.6941 30.4336C42.8533 29.3688 42.7084 28.2796 42.2767 27.2971C41.8451 26.3146 41.145 25.4807 40.2609 24.8957C39.3768 24.3108 38.3463 23.9997 37.2935 24C37.0038 24 36.7259 24.1178 36.5211 24.3274C36.3162 24.537 36.2011 24.8212 36.2011 25.1176C36.2011 25.4141 36.3162 25.6983 36.5211 25.9079C36.7259 26.1175 37.0038 26.2353 37.2935 26.2353C38.1627 26.2353 38.9962 26.5885 39.6108 27.2173C40.2254 27.8461 40.5707 28.699 40.5707 29.5882C40.5691 30.1753 40.417 30.7516 40.1294 31.2596C39.8419 31.7676 39.429 32.1894 38.9321 32.4829C38.7701 32.5785 38.6349 32.715 38.5392 32.8794C38.4436 33.0438 38.3908 33.2305 38.3859 33.4218C38.3813 33.6115 38.424 33.7993 38.5101 33.9675C38.5961 34.1356 38.7225 34.2786 38.8775 34.3829L39.3035 34.6735L39.4455 34.7518C40.7623 35.3907 41.8731 36.4014 42.6473 37.6647C43.4214 38.928 43.8266 40.3913 43.8151 41.8824C43.8151 42.1788 43.9302 42.4631 44.135 42.6726C44.3399 42.8822 44.6177 43 44.9075 43C45.1972 43 45.475 42.8822 45.6799 42.6726C45.8848 42.4631 45.9999 42.1788 45.9999 41.8824C46.0088 40.1672 45.5889 38.4783 44.7802 36.976C43.9714 35.4736 42.8006 34.2078 41.379 33.2988Z" fill="#4C5D73"/>
</svg>
