<svg width="143" height="34" viewBox="0 0 143 34" fill="none" xmlns="http://www.w3.org/2000/svg">
<path d="M114.552 20.008C114.488 20.008 114.432 19.984 114.384 19.936C114.336 19.888 114.312 19.832 114.312 19.768C114.312 19.736 114.324 19.688 114.348 19.624L118.452 9.784C118.516 9.64 118.62 9.568 118.764 9.568H119.232C119.296 9.568 119.352 9.592 119.4 9.64C119.448 9.688 119.472 9.744 119.472 9.808C119.472 9.864 119.464 9.912 119.448 9.952L115.332 19.792C115.268 19.936 115.164 20.008 115.02 20.008H114.552ZM120.531 19C120.451 19 120.383 18.976 120.327 18.928C120.279 18.872 120.255 18.804 120.255 18.724V13.036C120.255 12.956 120.279 12.892 120.327 12.844C120.383 12.788 120.451 12.76 120.531 12.76H121.071C121.151 12.76 121.215 12.788 121.263 12.844C121.319 12.892 121.347 12.956 121.347 13.036V13.456C121.763 12.912 122.343 12.64 123.087 12.64C123.975 12.64 124.603 13.008 124.971 13.744C125.163 13.408 125.435 13.14 125.787 12.94C126.139 12.74 126.535 12.64 126.975 12.64C127.631 12.64 128.167 12.864 128.583 13.312C128.999 13.76 129.207 14.408 129.207 15.256V18.724C129.207 18.804 129.179 18.872 129.123 18.928C129.075 18.976 129.011 19 128.931 19H128.367C128.287 19 128.219 18.976 128.163 18.928C128.115 18.872 128.091 18.804 128.091 18.724V15.364C128.091 14.74 127.959 14.292 127.695 14.02C127.439 13.748 127.099 13.612 126.675 13.612C126.299 13.612 125.975 13.752 125.703 14.032C125.431 14.304 125.295 14.748 125.295 15.364V18.724C125.295 18.804 125.267 18.872 125.211 18.928C125.163 18.976 125.099 19 125.019 19H124.455C124.375 19 124.307 18.976 124.251 18.928C124.203 18.872 124.179 18.804 124.179 18.724V15.364C124.179 14.74 124.043 14.292 123.771 14.02C123.507 13.748 123.171 13.612 122.763 13.612C122.387 13.612 122.063 13.752 121.791 14.032C121.519 14.304 121.383 14.744 121.383 15.352V18.724C121.383 18.804 121.355 18.872 121.299 18.928C121.251 18.976 121.187 19 121.107 19H120.531ZM133.415 19.12C132.591 19.12 131.931 18.868 131.435 18.364C130.947 17.852 130.679 17.156 130.631 16.276L130.619 15.868L130.631 15.472C130.687 14.608 130.959 13.92 131.447 13.408C131.943 12.896 132.595 12.64 133.403 12.64C134.291 12.64 134.979 12.924 135.467 13.492C135.955 14.052 136.199 14.812 136.199 15.772V15.976C136.199 16.056 136.171 16.124 136.115 16.18C136.067 16.228 136.003 16.252 135.923 16.252H131.771V16.36C131.795 16.88 131.951 17.324 132.239 17.692C132.535 18.052 132.923 18.232 133.403 18.232C133.771 18.232 134.071 18.16 134.303 18.016C134.543 17.864 134.719 17.708 134.831 17.548C134.903 17.452 134.955 17.396 134.987 17.38C135.027 17.356 135.095 17.344 135.191 17.344H135.779C135.851 17.344 135.911 17.364 135.959 17.404C136.007 17.444 136.031 17.5 136.031 17.572C136.031 17.748 135.919 17.96 135.695 18.208C135.479 18.456 135.171 18.672 134.771 18.856C134.379 19.032 133.927 19.12 133.415 19.12ZM135.059 15.424V15.388C135.059 14.836 134.907 14.388 134.603 14.044C134.307 13.692 133.907 13.516 133.403 13.516C132.899 13.516 132.499 13.692 132.203 14.044C131.915 14.388 131.771 14.836 131.771 15.388V15.424H135.059ZM131.771 11.86C131.651 11.86 131.591 11.812 131.591 11.716C131.591 11.652 131.635 11.576 131.723 11.488L132.827 10.384C132.899 10.304 132.963 10.256 133.019 10.24C133.075 10.216 133.143 10.204 133.223 10.204H133.583C133.663 10.204 133.727 10.216 133.775 10.24C133.831 10.256 133.899 10.304 133.979 10.384L135.083 11.488C135.171 11.576 135.215 11.652 135.215 11.716C135.215 11.812 135.155 11.86 135.035 11.86H134.723C134.579 11.86 134.467 11.832 134.387 11.776L133.403 11.092L132.419 11.776C132.339 11.832 132.227 11.86 132.083 11.86H131.771ZM139.794 19.12C139.234 19.12 138.762 19.032 138.378 18.856C138.002 18.672 137.718 18.464 137.526 18.232C137.342 18 137.25 17.808 137.25 17.656C137.25 17.576 137.278 17.516 137.334 17.476C137.398 17.428 137.462 17.404 137.526 17.404H138.066C138.146 17.404 138.218 17.444 138.282 17.524C138.474 17.748 138.682 17.924 138.906 18.052C139.13 18.18 139.43 18.244 139.806 18.244C140.222 18.244 140.558 18.164 140.814 18.004C141.078 17.836 141.21 17.608 141.21 17.32C141.21 17.128 141.154 16.972 141.042 16.852C140.938 16.724 140.754 16.616 140.49 16.528C140.234 16.432 139.85 16.328 139.338 16.216C138.642 16.064 138.146 15.844 137.85 15.556C137.562 15.268 137.418 14.896 137.418 14.44C137.418 14.136 137.506 13.848 137.682 13.576C137.866 13.296 138.13 13.072 138.474 12.904C138.826 12.728 139.246 12.64 139.734 12.64C140.246 12.64 140.682 12.724 141.042 12.892C141.402 13.06 141.67 13.26 141.846 13.492C142.03 13.716 142.122 13.904 142.122 14.056C142.122 14.128 142.094 14.188 142.038 14.236C141.99 14.284 141.93 14.308 141.858 14.308H141.354C141.258 14.308 141.178 14.268 141.114 14.188C140.986 14.036 140.874 13.92 140.778 13.84C140.69 13.752 140.558 13.676 140.382 13.612C140.214 13.548 139.998 13.516 139.734 13.516C139.35 13.516 139.054 13.6 138.846 13.768C138.638 13.928 138.534 14.14 138.534 14.404C138.534 14.572 138.578 14.716 138.666 14.836C138.754 14.948 138.922 15.052 139.17 15.148C139.426 15.244 139.794 15.344 140.274 15.448C141.034 15.608 141.57 15.84 141.882 16.144C142.202 16.44 142.362 16.82 142.362 17.284C142.362 17.628 142.262 17.94 142.062 18.22C141.862 18.5 141.566 18.72 141.174 18.88C140.79 19.04 140.33 19.12 139.794 19.12Z" fill="#111826" fill-opacity="0.6"/>
<path d="M3.04 30C2.82667 30 2.63467 29.9253 2.464 29.776C2.31467 29.6053 2.24 29.4133 2.24 29.2V8.4C2.24 8.16533 2.31467 7.97333 2.464 7.824C2.63467 7.67467 2.82667 7.6 3.04 7.6H11.744C14.5387 7.6 16.7147 8.24 18.272 9.52C19.8507 10.7787 20.64 12.5707 20.64 14.896C20.64 16.3893 20.288 17.6587 19.584 18.704C18.88 19.7493 17.9093 20.5493 16.672 21.104L21.056 28.976C21.12 29.104 21.152 29.2213 21.152 29.328C21.152 29.4987 21.0773 29.6587 20.928 29.808C20.8 29.936 20.6507 30 20.48 30H16.224C15.6053 30 15.168 29.712 14.912 29.136L11.264 22.096H8V29.2C8 29.4347 7.91467 29.6267 7.744 29.776C7.59467 29.9253 7.40267 30 7.168 30H3.04ZM11.68 17.552C12.6613 17.552 13.408 17.3173 13.92 16.848C14.432 16.3573 14.688 15.6853 14.688 14.832C14.688 13.9787 14.432 13.3067 13.92 12.816C13.4293 12.304 12.6827 12.048 11.68 12.048H8V17.552H11.68ZM31.437 33.2C31.2237 33.2 31.0317 33.1253 30.861 32.976C30.7117 32.8267 30.637 32.6347 30.637 32.4V30.192C29.0583 30 27.7037 29.5947 26.573 28.976C25.4637 28.3573 24.621 27.6107 24.045 26.736C23.4903 25.84 23.1917 24.8907 23.149 23.888C23.149 23.7173 23.213 23.568 23.341 23.44C23.4903 23.2907 23.661 23.216 23.853 23.216H27.885C28.141 23.216 28.3437 23.2693 28.493 23.376C28.6637 23.4613 28.8343 23.6 29.005 23.792C29.2823 24.3467 29.7197 24.8053 30.317 25.168C30.9357 25.5307 31.7677 25.712 32.813 25.712C34.029 25.712 34.957 25.52 35.597 25.136C36.237 24.752 36.557 24.2293 36.557 23.568C36.557 23.0987 36.3863 22.7147 36.045 22.416C35.725 22.1173 35.213 21.8507 34.509 21.616C33.805 21.3813 32.7597 21.1147 31.373 20.816C28.7917 20.304 26.8717 19.5253 25.613 18.48C24.3543 17.4347 23.725 15.952 23.725 14.032C23.725 12.3253 24.3437 10.8747 25.581 9.68C26.8183 8.464 28.5037 7.71733 30.637 7.44V5.2C30.637 4.96533 30.7117 4.77333 30.861 4.624C31.0317 4.47467 31.2237 4.4 31.437 4.4H34.093C34.3277 4.4 34.5197 4.47467 34.669 4.624C34.8183 4.77333 34.893 4.96533 34.893 5.2V7.504C36.301 7.73867 37.5063 8.18667 38.509 8.848C39.533 9.488 40.3117 10.224 40.845 11.056C41.3783 11.888 41.6663 12.7093 41.709 13.52C41.709 13.6907 41.645 13.8507 41.517 14C41.389 14.128 41.229 14.192 41.037 14.192H36.813C36.557 14.192 36.3437 14.1493 36.173 14.064C36.0237 13.9787 35.885 13.84 35.757 13.648C35.629 13.1573 35.277 12.7413 34.701 12.4C34.1463 12.0587 33.453 11.888 32.621 11.888C31.661 11.888 30.925 12.0587 30.413 12.4C29.901 12.7413 29.645 13.2427 29.645 13.904C29.645 14.352 29.7837 14.7253 30.061 15.024C30.3597 15.3227 30.829 15.6 31.469 15.856C32.1303 16.0907 33.069 16.336 34.285 16.592C36.269 16.9547 37.8477 17.4133 39.021 17.968C40.1943 18.5013 41.0583 19.1947 41.613 20.048C42.1677 20.9013 42.445 21.9893 42.445 23.312C42.445 25.1893 41.7623 26.7253 40.397 27.92C39.0317 29.1147 37.197 29.8613 34.893 30.16V32.4C34.893 32.6347 34.8183 32.8267 34.669 32.976C34.5197 33.1253 34.3277 33.2 34.093 33.2H31.437ZM59.1765 30C58.9632 30 58.7712 29.9253 58.6005 29.776C58.4512 29.6053 58.3765 29.4133 58.3765 29.2V13.968L53.9925 17.328C53.8432 17.456 53.6832 17.52 53.5125 17.52C53.2778 17.52 53.0645 17.392 52.8725 17.136L50.9845 14.672C50.8778 14.5013 50.8245 14.3413 50.8245 14.192C50.8245 13.8933 50.9525 13.6693 51.2085 13.52L58.5685 7.824C58.8032 7.67467 59.0592 7.6 59.3365 7.6H63.3365C63.5712 7.6 63.7632 7.67467 63.9125 7.824C64.0618 7.97333 64.1365 8.16533 64.1365 8.4V29.2C64.1365 29.4133 64.0618 29.6053 63.9125 29.776C63.7632 29.9253 63.5712 30 63.3365 30H59.1765ZM77.0668 30.32C74.1228 30.2987 71.8934 29.52 70.3788 27.984C68.8641 26.4267 68.0428 24.3893 67.9148 21.872C67.8721 20.72 67.8508 19.696 67.8508 18.8C67.8508 17.8827 67.8721 16.8267 67.9148 15.632C68.0001 14.032 68.3841 12.6133 69.0668 11.376C69.7708 10.1173 70.7948 9.12533 72.1388 8.4C73.4828 7.65333 75.1254 7.28 77.0668 7.28C79.9468 7.30133 82.1654 8.08 83.7228 9.616C85.2801 11.152 86.1228 13.1573 86.2508 15.632C86.2934 16.8267 86.3148 17.8827 86.3148 18.8C86.3148 19.696 86.2934 20.72 86.2508 21.872C86.1014 24.3893 85.2694 26.4267 83.7548 27.984C82.2401 29.52 80.0108 30.2987 77.0668 30.32ZM77.0668 25.68C78.1121 25.68 78.8908 25.3387 79.4028 24.656C79.9361 23.952 80.2241 22.9707 80.2668 21.712C80.3094 21.0933 80.3308 20.1013 80.3308 18.736C80.3308 17.3707 80.3094 16.4 80.2668 15.824C80.2241 14.608 79.9468 13.648 79.4348 12.944C78.9228 12.24 78.1334 11.8773 77.0668 11.856C76.0214 11.8773 75.2321 12.24 74.6988 12.944C74.1868 13.648 73.9094 14.608 73.8668 15.824C73.8454 16.4 73.8348 17.3707 73.8348 18.736C73.8348 20.1013 73.8454 21.0933 73.8668 21.712C73.9734 24.3573 75.0401 25.68 77.0668 25.68ZM98.8168 30.32C95.8728 30.2987 93.6434 29.52 92.1288 27.984C90.6141 26.4267 89.7928 24.3893 89.6648 21.872C89.6221 20.72 89.6008 19.696 89.6008 18.8C89.6008 17.8827 89.6221 16.8267 89.6648 15.632C89.7501 14.032 90.1341 12.6133 90.8168 11.376C91.5208 10.1173 92.5448 9.12533 93.8888 8.4C95.2328 7.65333 96.8754 7.28 98.8168 7.28C101.697 7.30133 103.915 8.08 105.473 9.616C107.03 11.152 107.873 13.1573 108.001 15.632C108.043 16.8267 108.065 17.8827 108.065 18.8C108.065 19.696 108.043 20.72 108.001 21.872C107.851 24.3893 107.019 26.4267 105.505 27.984C103.99 29.52 101.761 30.2987 98.8168 30.32ZM98.8168 25.68C99.8621 25.68 100.641 25.3387 101.153 24.656C101.686 23.952 101.974 22.9707 102.017 21.712C102.059 21.0933 102.081 20.1013 102.081 18.736C102.081 17.3707 102.059 16.4 102.017 15.824C101.974 14.608 101.697 13.648 101.185 12.944C100.673 12.24 99.8834 11.8773 98.8168 11.856C97.7714 11.8773 96.9821 12.24 96.4488 12.944C95.9368 13.648 95.6594 14.608 95.6168 15.824C95.5954 16.4 95.5848 17.3707 95.5848 18.736C95.5848 20.1013 95.5954 21.0933 95.6168 21.712C95.7234 24.3573 96.7901 25.68 98.8168 25.68Z" fill="#111826"/>
</svg>
