<svg width="142" height="34" viewBox="0 0 142 34" fill="none" xmlns="http://www.w3.org/2000/svg">
<path d="M113.552 20.008C113.488 20.008 113.432 19.984 113.384 19.936C113.336 19.888 113.312 19.832 113.312 19.768C113.312 19.736 113.324 19.688 113.348 19.624L117.452 9.784C117.516 9.64 117.62 9.568 117.764 9.568H118.232C118.296 9.568 118.352 9.592 118.4 9.64C118.448 9.688 118.472 9.744 118.472 9.808C118.472 9.864 118.464 9.912 118.448 9.952L114.332 19.792C114.268 19.936 114.164 20.008 114.02 20.008H113.552ZM119.531 19C119.451 19 119.383 18.976 119.327 18.928C119.279 18.872 119.255 18.804 119.255 18.724V13.036C119.255 12.956 119.279 12.892 119.327 12.844C119.383 12.788 119.451 12.76 119.531 12.76H120.071C120.151 12.76 120.215 12.788 120.263 12.844C120.319 12.892 120.347 12.956 120.347 13.036V13.456C120.763 12.912 121.343 12.64 122.087 12.64C122.975 12.64 123.603 13.008 123.971 13.744C124.163 13.408 124.435 13.14 124.787 12.94C125.139 12.74 125.535 12.64 125.975 12.64C126.631 12.64 127.167 12.864 127.583 13.312C127.999 13.76 128.207 14.408 128.207 15.256V18.724C128.207 18.804 128.179 18.872 128.123 18.928C128.075 18.976 128.011 19 127.931 19H127.367C127.287 19 127.219 18.976 127.163 18.928C127.115 18.872 127.091 18.804 127.091 18.724V15.364C127.091 14.74 126.959 14.292 126.695 14.02C126.439 13.748 126.099 13.612 125.675 13.612C125.299 13.612 124.975 13.752 124.703 14.032C124.431 14.304 124.295 14.748 124.295 15.364V18.724C124.295 18.804 124.267 18.872 124.211 18.928C124.163 18.976 124.099 19 124.019 19H123.455C123.375 19 123.307 18.976 123.251 18.928C123.203 18.872 123.179 18.804 123.179 18.724V15.364C123.179 14.74 123.043 14.292 122.771 14.02C122.507 13.748 122.171 13.612 121.763 13.612C121.387 13.612 121.063 13.752 120.791 14.032C120.519 14.304 120.383 14.744 120.383 15.352V18.724C120.383 18.804 120.355 18.872 120.299 18.928C120.251 18.976 120.187 19 120.107 19H119.531ZM132.415 19.12C131.591 19.12 130.931 18.868 130.435 18.364C129.947 17.852 129.679 17.156 129.631 16.276L129.619 15.868L129.631 15.472C129.687 14.608 129.959 13.92 130.447 13.408C130.943 12.896 131.595 12.64 132.403 12.64C133.291 12.64 133.979 12.924 134.467 13.492C134.955 14.052 135.199 14.812 135.199 15.772V15.976C135.199 16.056 135.171 16.124 135.115 16.18C135.067 16.228 135.003 16.252 134.923 16.252H130.771V16.36C130.795 16.88 130.951 17.324 131.239 17.692C131.535 18.052 131.923 18.232 132.403 18.232C132.771 18.232 133.071 18.16 133.303 18.016C133.543 17.864 133.719 17.708 133.831 17.548C133.903 17.452 133.955 17.396 133.987 17.38C134.027 17.356 134.095 17.344 134.191 17.344H134.779C134.851 17.344 134.911 17.364 134.959 17.404C135.007 17.444 135.031 17.5 135.031 17.572C135.031 17.748 134.919 17.96 134.695 18.208C134.479 18.456 134.171 18.672 133.771 18.856C133.379 19.032 132.927 19.12 132.415 19.12ZM134.059 15.424V15.388C134.059 14.836 133.907 14.388 133.603 14.044C133.307 13.692 132.907 13.516 132.403 13.516C131.899 13.516 131.499 13.692 131.203 14.044C130.915 14.388 130.771 14.836 130.771 15.388V15.424H134.059ZM130.771 11.86C130.651 11.86 130.591 11.812 130.591 11.716C130.591 11.652 130.635 11.576 130.723 11.488L131.827 10.384C131.899 10.304 131.963 10.256 132.019 10.24C132.075 10.216 132.143 10.204 132.223 10.204H132.583C132.663 10.204 132.727 10.216 132.775 10.24C132.831 10.256 132.899 10.304 132.979 10.384L134.083 11.488C134.171 11.576 134.215 11.652 134.215 11.716C134.215 11.812 134.155 11.86 134.035 11.86H133.723C133.579 11.86 133.467 11.832 133.387 11.776L132.403 11.092L131.419 11.776C131.339 11.832 131.227 11.86 131.083 11.86H130.771ZM138.794 19.12C138.234 19.12 137.762 19.032 137.378 18.856C137.002 18.672 136.718 18.464 136.526 18.232C136.342 18 136.25 17.808 136.25 17.656C136.25 17.576 136.278 17.516 136.334 17.476C136.398 17.428 136.462 17.404 136.526 17.404H137.066C137.146 17.404 137.218 17.444 137.282 17.524C137.474 17.748 137.682 17.924 137.906 18.052C138.13 18.18 138.43 18.244 138.806 18.244C139.222 18.244 139.558 18.164 139.814 18.004C140.078 17.836 140.21 17.608 140.21 17.32C140.21 17.128 140.154 16.972 140.042 16.852C139.938 16.724 139.754 16.616 139.49 16.528C139.234 16.432 138.85 16.328 138.338 16.216C137.642 16.064 137.146 15.844 136.85 15.556C136.562 15.268 136.418 14.896 136.418 14.44C136.418 14.136 136.506 13.848 136.682 13.576C136.866 13.296 137.13 13.072 137.474 12.904C137.826 12.728 138.246 12.64 138.734 12.64C139.246 12.64 139.682 12.724 140.042 12.892C140.402 13.06 140.67 13.26 140.846 13.492C141.03 13.716 141.122 13.904 141.122 14.056C141.122 14.128 141.094 14.188 141.038 14.236C140.99 14.284 140.93 14.308 140.858 14.308H140.354C140.258 14.308 140.178 14.268 140.114 14.188C139.986 14.036 139.874 13.92 139.778 13.84C139.69 13.752 139.558 13.676 139.382 13.612C139.214 13.548 138.998 13.516 138.734 13.516C138.35 13.516 138.054 13.6 137.846 13.768C137.638 13.928 137.534 14.14 137.534 14.404C137.534 14.572 137.578 14.716 137.666 14.836C137.754 14.948 137.922 15.052 138.17 15.148C138.426 15.244 138.794 15.344 139.274 15.448C140.034 15.608 140.57 15.84 140.882 16.144C141.202 16.44 141.362 16.82 141.362 17.284C141.362 17.628 141.262 17.94 141.062 18.22C140.862 18.5 140.566 18.72 140.174 18.88C139.79 19.04 139.33 19.12 138.794 19.12Z" fill="white"/>
<path d="M3.04 30C2.82667 30 2.63467 29.9253 2.464 29.776C2.31467 29.6053 2.24 29.4133 2.24 29.2V8.4C2.24 8.16533 2.31467 7.97333 2.464 7.824C2.63467 7.67467 2.82667 7.6 3.04 7.6H11.744C14.5387 7.6 16.7147 8.24 18.272 9.52C19.8507 10.7787 20.64 12.5707 20.64 14.896C20.64 16.3893 20.288 17.6587 19.584 18.704C18.88 19.7493 17.9093 20.5493 16.672 21.104L21.056 28.976C21.12 29.104 21.152 29.2213 21.152 29.328C21.152 29.4987 21.0773 29.6587 20.928 29.808C20.8 29.936 20.6507 30 20.48 30H16.224C15.6053 30 15.168 29.712 14.912 29.136L11.264 22.096H8V29.2C8 29.4347 7.91467 29.6267 7.744 29.776C7.59467 29.9253 7.40267 30 7.168 30H3.04ZM11.68 17.552C12.6613 17.552 13.408 17.3173 13.92 16.848C14.432 16.3573 14.688 15.6853 14.688 14.832C14.688 13.9787 14.432 13.3067 13.92 12.816C13.4293 12.304 12.6827 12.048 11.68 12.048H8V17.552H11.68ZM31.437 33.2C31.2237 33.2 31.0317 33.1253 30.861 32.976C30.7117 32.8267 30.637 32.6347 30.637 32.4V30.192C29.0583 30 27.7037 29.5947 26.573 28.976C25.4637 28.3573 24.621 27.6107 24.045 26.736C23.4903 25.84 23.1917 24.8907 23.149 23.888C23.149 23.7173 23.213 23.568 23.341 23.44C23.4903 23.2907 23.661 23.216 23.853 23.216H27.885C28.141 23.216 28.3437 23.2693 28.493 23.376C28.6637 23.4613 28.8343 23.6 29.005 23.792C29.2823 24.3467 29.7197 24.8053 30.317 25.168C30.9357 25.5307 31.7677 25.712 32.813 25.712C34.029 25.712 34.957 25.52 35.597 25.136C36.237 24.752 36.557 24.2293 36.557 23.568C36.557 23.0987 36.3863 22.7147 36.045 22.416C35.725 22.1173 35.213 21.8507 34.509 21.616C33.805 21.3813 32.7597 21.1147 31.373 20.816C28.7917 20.304 26.8717 19.5253 25.613 18.48C24.3543 17.4347 23.725 15.952 23.725 14.032C23.725 12.3253 24.3437 10.8747 25.581 9.68C26.8183 8.464 28.5037 7.71733 30.637 7.44V5.2C30.637 4.96533 30.7117 4.77333 30.861 4.624C31.0317 4.47467 31.2237 4.4 31.437 4.4H34.093C34.3277 4.4 34.5197 4.47467 34.669 4.624C34.8183 4.77333 34.893 4.96533 34.893 5.2V7.504C36.301 7.73867 37.5063 8.18667 38.509 8.848C39.533 9.488 40.3117 10.224 40.845 11.056C41.3783 11.888 41.6663 12.7093 41.709 13.52C41.709 13.6907 41.645 13.8507 41.517 14C41.389 14.128 41.229 14.192 41.037 14.192H36.813C36.557 14.192 36.3437 14.1493 36.173 14.064C36.0237 13.9787 35.885 13.84 35.757 13.648C35.629 13.1573 35.277 12.7413 34.701 12.4C34.1463 12.0587 33.453 11.888 32.621 11.888C31.661 11.888 30.925 12.0587 30.413 12.4C29.901 12.7413 29.645 13.2427 29.645 13.904C29.645 14.352 29.7837 14.7253 30.061 15.024C30.3597 15.3227 30.829 15.6 31.469 15.856C32.1303 16.0907 33.069 16.336 34.285 16.592C36.269 16.9547 37.8477 17.4133 39.021 17.968C40.1943 18.5013 41.0583 19.1947 41.613 20.048C42.1677 20.9013 42.445 21.9893 42.445 23.312C42.445 25.1893 41.7623 26.7253 40.397 27.92C39.0317 29.1147 37.197 29.8613 34.893 30.16V32.4C34.893 32.6347 34.8183 32.8267 34.669 32.976C34.5197 33.1253 34.3277 33.2 34.093 33.2H31.437ZM59.1765 30C58.9632 30 58.7712 29.9253 58.6005 29.776C58.4512 29.6053 58.3765 29.4133 58.3765 29.2V13.968L53.9925 17.328C53.8432 17.456 53.6832 17.52 53.5125 17.52C53.2778 17.52 53.0645 17.392 52.8725 17.136L50.9845 14.672C50.8778 14.5013 50.8245 14.3413 50.8245 14.192C50.8245 13.8933 50.9525 13.6693 51.2085 13.52L58.5685 7.824C58.8032 7.67467 59.0592 7.6 59.3365 7.6H63.3365C63.5712 7.6 63.7632 7.67467 63.9125 7.824C64.0618 7.97333 64.1365 8.16533 64.1365 8.4V29.2C64.1365 29.4133 64.0618 29.6053 63.9125 29.776C63.7632 29.9253 63.5712 30 63.3365 30H59.1765ZM76.4588 30.352C74.5388 30.352 72.8961 30.0533 71.5308 29.456C70.1654 28.8373 69.1201 28.016 68.3948 26.992C67.6908 25.968 67.3174 24.8587 67.2747 23.664C67.2747 23.472 67.3388 23.312 67.4668 23.184C67.5948 23.056 67.7548 22.992 67.9468 22.992H72.2348C72.7254 22.992 73.0668 23.1947 73.2588 23.6C73.8348 25.0293 74.9121 25.744 76.4908 25.744C77.4294 25.744 78.2188 25.456 78.8588 24.88C79.5201 24.2827 79.8508 23.4613 79.8508 22.416C79.8508 21.4773 79.5308 20.7093 78.8908 20.112C78.2721 19.5147 77.4721 19.216 76.4908 19.216C75.9361 19.216 75.4881 19.2907 75.1468 19.44C74.8268 19.568 74.4961 19.76 74.1548 20.016C73.7921 20.2933 73.5041 20.432 73.2908 20.432H69.0988C68.9068 20.432 68.7361 20.368 68.5868 20.24C68.4588 20.0907 68.3948 19.92 68.3948 19.728L69.5468 8.56C69.5681 8.26133 69.6748 8.02667 69.8668 7.856C70.0801 7.68533 70.3254 7.6 70.6028 7.6H83.4348C83.6694 7.6 83.8614 7.67467 84.0108 7.824C84.1814 7.97333 84.2668 8.16533 84.2668 8.4V11.408C84.2668 11.6427 84.1814 11.8347 84.0108 11.984C83.8614 12.1333 83.6694 12.208 83.4348 12.208H74.1548L73.7388 16.336C74.2721 15.9733 74.8588 15.7067 75.4988 15.536C76.1388 15.344 76.9708 15.248 77.9948 15.248C79.3388 15.248 80.6081 15.5573 81.8028 16.176C82.9974 16.7733 83.9468 17.6267 84.6508 18.736C85.3761 19.8453 85.7388 21.1147 85.7388 22.544C85.7388 24.0587 85.3654 25.4133 84.6188 26.608C83.8721 27.7813 82.7948 28.6987 81.3868 29.36C80.0001 30.0213 78.3574 30.352 76.4588 30.352ZM97.7543 30.32C94.8103 30.2987 92.5809 29.52 91.0663 27.984C89.5516 26.4267 88.7303 24.3893 88.6023 21.872C88.5596 20.72 88.5383 19.696 88.5383 18.8C88.5383 17.8827 88.5596 16.8267 88.6023 15.632C88.6876 14.032 89.0716 12.6133 89.7543 11.376C90.4583 10.1173 91.4823 9.12533 92.8263 8.4C94.1703 7.65333 95.8129 7.28 97.7543 7.28C100.634 7.30133 102.853 8.08 104.41 9.616C105.968 11.152 106.81 13.1573 106.938 15.632C106.981 16.8267 107.002 17.8827 107.002 18.8C107.002 19.696 106.981 20.72 106.938 21.872C106.789 24.3893 105.957 26.4267 104.442 27.984C102.928 29.52 100.698 30.2987 97.7543 30.32ZM97.7543 25.68C98.7996 25.68 99.5783 25.3387 100.09 24.656C100.624 23.952 100.912 22.9707 100.954 21.712C100.997 21.0933 101.018 20.1013 101.018 18.736C101.018 17.3707 100.997 16.4 100.954 15.824C100.912 14.608 100.634 13.648 100.122 12.944C99.6103 12.24 98.8209 11.8773 97.7543 11.856C96.7089 11.8773 95.9196 12.24 95.3863 12.944C94.8743 13.648 94.5969 14.608 94.5543 15.824C94.5329 16.4 94.5223 17.3707 94.5223 18.736C94.5223 20.1013 94.5329 21.0933 94.5543 21.712C94.6609 24.3573 95.7276 25.68 97.7543 25.68Z" fill="white"/>
</svg>
