<svg width="148" height="34" viewBox="0 0 148 34" fill="none" xmlns="http://www.w3.org/2000/svg">
<path d="M119.552 20.008C119.488 20.008 119.432 19.984 119.384 19.936C119.336 19.888 119.312 19.832 119.312 19.768C119.312 19.736 119.324 19.688 119.348 19.624L123.452 9.784C123.516 9.64 123.62 9.568 123.764 9.568H124.232C124.296 9.568 124.352 9.592 124.4 9.64C124.448 9.688 124.472 9.744 124.472 9.808C124.472 9.864 124.464 9.912 124.448 9.952L120.332 19.792C120.268 19.936 120.164 20.008 120.02 20.008H119.552ZM125.531 19C125.451 19 125.383 18.976 125.327 18.928C125.279 18.872 125.255 18.804 125.255 18.724V13.036C125.255 12.956 125.279 12.892 125.327 12.844C125.383 12.788 125.451 12.76 125.531 12.76H126.071C126.151 12.76 126.215 12.788 126.263 12.844C126.319 12.892 126.347 12.956 126.347 13.036V13.456C126.763 12.912 127.343 12.64 128.087 12.64C128.975 12.64 129.603 13.008 129.971 13.744C130.163 13.408 130.435 13.14 130.787 12.94C131.139 12.74 131.535 12.64 131.975 12.64C132.631 12.64 133.167 12.864 133.583 13.312C133.999 13.76 134.207 14.408 134.207 15.256V18.724C134.207 18.804 134.179 18.872 134.123 18.928C134.075 18.976 134.011 19 133.931 19H133.367C133.287 19 133.219 18.976 133.163 18.928C133.115 18.872 133.091 18.804 133.091 18.724V15.364C133.091 14.74 132.959 14.292 132.695 14.02C132.439 13.748 132.099 13.612 131.675 13.612C131.299 13.612 130.975 13.752 130.703 14.032C130.431 14.304 130.295 14.748 130.295 15.364V18.724C130.295 18.804 130.267 18.872 130.211 18.928C130.163 18.976 130.099 19 130.019 19H129.455C129.375 19 129.307 18.976 129.251 18.928C129.203 18.872 129.179 18.804 129.179 18.724V15.364C129.179 14.74 129.043 14.292 128.771 14.02C128.507 13.748 128.171 13.612 127.763 13.612C127.387 13.612 127.063 13.752 126.791 14.032C126.519 14.304 126.383 14.744 126.383 15.352V18.724C126.383 18.804 126.355 18.872 126.299 18.928C126.251 18.976 126.187 19 126.107 19H125.531ZM138.415 19.12C137.591 19.12 136.931 18.868 136.435 18.364C135.947 17.852 135.679 17.156 135.631 16.276L135.619 15.868L135.631 15.472C135.687 14.608 135.959 13.92 136.447 13.408C136.943 12.896 137.595 12.64 138.403 12.64C139.291 12.64 139.979 12.924 140.467 13.492C140.955 14.052 141.199 14.812 141.199 15.772V15.976C141.199 16.056 141.171 16.124 141.115 16.18C141.067 16.228 141.003 16.252 140.923 16.252H136.771V16.36C136.795 16.88 136.951 17.324 137.239 17.692C137.535 18.052 137.923 18.232 138.403 18.232C138.771 18.232 139.071 18.16 139.303 18.016C139.543 17.864 139.719 17.708 139.831 17.548C139.903 17.452 139.955 17.396 139.987 17.38C140.027 17.356 140.095 17.344 140.191 17.344H140.779C140.851 17.344 140.911 17.364 140.959 17.404C141.007 17.444 141.031 17.5 141.031 17.572C141.031 17.748 140.919 17.96 140.695 18.208C140.479 18.456 140.171 18.672 139.771 18.856C139.379 19.032 138.927 19.12 138.415 19.12ZM140.059 15.424V15.388C140.059 14.836 139.907 14.388 139.603 14.044C139.307 13.692 138.907 13.516 138.403 13.516C137.899 13.516 137.499 13.692 137.203 14.044C136.915 14.388 136.771 14.836 136.771 15.388V15.424H140.059ZM136.771 11.86C136.651 11.86 136.591 11.812 136.591 11.716C136.591 11.652 136.635 11.576 136.723 11.488L137.827 10.384C137.899 10.304 137.963 10.256 138.019 10.24C138.075 10.216 138.143 10.204 138.223 10.204H138.583C138.663 10.204 138.727 10.216 138.775 10.24C138.831 10.256 138.899 10.304 138.979 10.384L140.083 11.488C140.171 11.576 140.215 11.652 140.215 11.716C140.215 11.812 140.155 11.86 140.035 11.86H139.723C139.579 11.86 139.467 11.832 139.387 11.776L138.403 11.092L137.419 11.776C137.339 11.832 137.227 11.86 137.083 11.86H136.771ZM144.794 19.12C144.234 19.12 143.762 19.032 143.378 18.856C143.002 18.672 142.718 18.464 142.526 18.232C142.342 18 142.25 17.808 142.25 17.656C142.25 17.576 142.278 17.516 142.334 17.476C142.398 17.428 142.462 17.404 142.526 17.404H143.066C143.146 17.404 143.218 17.444 143.282 17.524C143.474 17.748 143.682 17.924 143.906 18.052C144.13 18.18 144.43 18.244 144.806 18.244C145.222 18.244 145.558 18.164 145.814 18.004C146.078 17.836 146.21 17.608 146.21 17.32C146.21 17.128 146.154 16.972 146.042 16.852C145.938 16.724 145.754 16.616 145.49 16.528C145.234 16.432 144.85 16.328 144.338 16.216C143.642 16.064 143.146 15.844 142.85 15.556C142.562 15.268 142.418 14.896 142.418 14.44C142.418 14.136 142.506 13.848 142.682 13.576C142.866 13.296 143.13 13.072 143.474 12.904C143.826 12.728 144.246 12.64 144.734 12.64C145.246 12.64 145.682 12.724 146.042 12.892C146.402 13.06 146.67 13.26 146.846 13.492C147.03 13.716 147.122 13.904 147.122 14.056C147.122 14.128 147.094 14.188 147.038 14.236C146.99 14.284 146.93 14.308 146.858 14.308H146.354C146.258 14.308 146.178 14.268 146.114 14.188C145.986 14.036 145.874 13.92 145.778 13.84C145.69 13.752 145.558 13.676 145.382 13.612C145.214 13.548 144.998 13.516 144.734 13.516C144.35 13.516 144.054 13.6 143.846 13.768C143.638 13.928 143.534 14.14 143.534 14.404C143.534 14.572 143.578 14.716 143.666 14.836C143.754 14.948 143.922 15.052 144.17 15.148C144.426 15.244 144.794 15.344 145.274 15.448C146.034 15.608 146.57 15.84 146.882 16.144C147.202 16.44 147.362 16.82 147.362 17.284C147.362 17.628 147.262 17.94 147.062 18.22C146.862 18.5 146.566 18.72 146.174 18.88C145.79 19.04 145.33 19.12 144.794 19.12Z" fill="#111826" fill-opacity="0.6"/>
<path d="M3.04 30C2.82667 30 2.63467 29.9253 2.464 29.776C2.31467 29.6053 2.24 29.4133 2.24 29.2V8.4C2.24 8.16533 2.31467 7.97333 2.464 7.824C2.63467 7.67467 2.82667 7.6 3.04 7.6H11.744C14.5387 7.6 16.7147 8.24 18.272 9.52C19.8507 10.7787 20.64 12.5707 20.64 14.896C20.64 16.3893 20.288 17.6587 19.584 18.704C18.88 19.7493 17.9093 20.5493 16.672 21.104L21.056 28.976C21.12 29.104 21.152 29.2213 21.152 29.328C21.152 29.4987 21.0773 29.6587 20.928 29.808C20.8 29.936 20.6507 30 20.48 30H16.224C15.6053 30 15.168 29.712 14.912 29.136L11.264 22.096H8V29.2C8 29.4347 7.91467 29.6267 7.744 29.776C7.59467 29.9253 7.40267 30 7.168 30H3.04ZM11.68 17.552C12.6613 17.552 13.408 17.3173 13.92 16.848C14.432 16.3573 14.688 15.6853 14.688 14.832C14.688 13.9787 14.432 13.3067 13.92 12.816C13.4293 12.304 12.6827 12.048 11.68 12.048H8V17.552H11.68ZM31.437 33.2C31.2237 33.2 31.0317 33.1253 30.861 32.976C30.7117 32.8267 30.637 32.6347 30.637 32.4V30.192C29.0583 30 27.7037 29.5947 26.573 28.976C25.4637 28.3573 24.621 27.6107 24.045 26.736C23.4903 25.84 23.1917 24.8907 23.149 23.888C23.149 23.7173 23.213 23.568 23.341 23.44C23.4903 23.2907 23.661 23.216 23.853 23.216H27.885C28.141 23.216 28.3437 23.2693 28.493 23.376C28.6637 23.4613 28.8343 23.6 29.005 23.792C29.2823 24.3467 29.7197 24.8053 30.317 25.168C30.9357 25.5307 31.7677 25.712 32.813 25.712C34.029 25.712 34.957 25.52 35.597 25.136C36.237 24.752 36.557 24.2293 36.557 23.568C36.557 23.0987 36.3863 22.7147 36.045 22.416C35.725 22.1173 35.213 21.8507 34.509 21.616C33.805 21.3813 32.7597 21.1147 31.373 20.816C28.7917 20.304 26.8717 19.5253 25.613 18.48C24.3543 17.4347 23.725 15.952 23.725 14.032C23.725 12.3253 24.3437 10.8747 25.581 9.68C26.8183 8.464 28.5037 7.71733 30.637 7.44V5.2C30.637 4.96533 30.7117 4.77333 30.861 4.624C31.0317 4.47467 31.2237 4.4 31.437 4.4H34.093C34.3277 4.4 34.5197 4.47467 34.669 4.624C34.8183 4.77333 34.893 4.96533 34.893 5.2V7.504C36.301 7.73867 37.5063 8.18667 38.509 8.848C39.533 9.488 40.3117 10.224 40.845 11.056C41.3783 11.888 41.6663 12.7093 41.709 13.52C41.709 13.6907 41.645 13.8507 41.517 14C41.389 14.128 41.229 14.192 41.037 14.192H36.813C36.557 14.192 36.3437 14.1493 36.173 14.064C36.0237 13.9787 35.885 13.84 35.757 13.648C35.629 13.1573 35.277 12.7413 34.701 12.4C34.1463 12.0587 33.453 11.888 32.621 11.888C31.661 11.888 30.925 12.0587 30.413 12.4C29.901 12.7413 29.645 13.2427 29.645 13.904C29.645 14.352 29.7837 14.7253 30.061 15.024C30.3597 15.3227 30.829 15.6 31.469 15.856C32.1303 16.0907 33.069 16.336 34.285 16.592C36.269 16.9547 37.8477 17.4133 39.021 17.968C40.1943 18.5013 41.0583 19.1947 41.613 20.048C42.1677 20.9013 42.445 21.9893 42.445 23.312C42.445 25.1893 41.7623 26.7253 40.397 27.92C39.0317 29.1147 37.197 29.8613 34.893 30.16V32.4C34.893 32.6347 34.8183 32.8267 34.669 32.976C34.5197 33.1253 34.3277 33.2 34.093 33.2H31.437ZM52.4565 30C52.2218 30 52.0192 29.9253 51.8485 29.776C51.6992 29.6267 51.6245 29.4347 51.6245 29.2V26.928C51.6245 26.288 51.8912 25.7653 52.4245 25.36L55.7525 22.096C57.6938 20.6027 59.1658 19.44 60.1685 18.608C61.1712 17.776 61.9285 17.0187 62.4405 16.336C62.9525 15.6533 63.2085 15.0027 63.2085 14.384C63.2085 12.6987 62.3765 11.856 60.7125 11.856C59.8378 11.856 59.1658 12.1227 58.6965 12.656C58.2272 13.168 57.9178 13.8187 57.7685 14.608C57.6405 15.0987 57.2778 15.344 56.6805 15.344H52.6805C52.4885 15.344 52.3285 15.28 52.2005 15.152C52.0725 15.024 52.0085 14.864 52.0085 14.672C52.0512 13.3067 52.4245 12.0587 53.1285 10.928C53.8538 9.776 54.8672 8.86933 56.1685 8.208C57.4912 7.52533 59.0058 7.184 60.7125 7.184C62.5045 7.184 64.0405 7.472 65.3205 8.048C66.6005 8.624 67.5712 9.43467 68.2325 10.48C68.8938 11.5253 69.2245 12.7413 69.2245 14.128C69.2245 15.6213 68.7552 16.9867 67.8165 18.224C66.8992 19.44 65.4912 20.7627 63.5925 22.192L60.6485 25.168H68.8725C69.1072 25.168 69.2992 25.2427 69.4485 25.392C69.6192 25.5413 69.7045 25.7333 69.7045 25.968V29.2C69.7045 29.4347 69.6192 29.6267 69.4485 29.776C69.2992 29.9253 69.1072 30 68.8725 30H52.4565ZM81.973 30.32C79.029 30.2987 76.7997 29.52 75.285 27.984C73.7703 26.4267 72.949 24.3893 72.821 21.872C72.7783 20.72 72.757 19.696 72.757 18.8C72.757 17.8827 72.7783 16.8267 72.821 15.632C72.9063 14.032 73.2903 12.6133 73.973 11.376C74.677 10.1173 75.701 9.12533 77.045 8.4C78.389 7.65333 80.0317 7.28 81.973 7.28C84.853 7.30133 87.0717 8.08 88.629 9.616C90.1863 11.152 91.029 13.1573 91.157 15.632C91.1997 16.8267 91.221 17.8827 91.221 18.8C91.221 19.696 91.1997 20.72 91.157 21.872C91.0077 24.3893 90.1757 26.4267 88.661 27.984C87.1463 29.52 84.917 30.2987 81.973 30.32ZM81.973 25.68C83.0183 25.68 83.797 25.3387 84.309 24.656C84.8423 23.952 85.1303 22.9707 85.173 21.712C85.2157 21.0933 85.237 20.1013 85.237 18.736C85.237 17.3707 85.2157 16.4 85.173 15.824C85.1303 14.608 84.853 13.648 84.341 12.944C83.829 12.24 83.0397 11.8773 81.973 11.856C80.9277 11.8773 80.1383 12.24 79.605 12.944C79.093 13.648 78.8157 14.608 78.773 15.824C78.7517 16.4 78.741 17.3707 78.741 18.736C78.741 20.1013 78.7517 21.0933 78.773 21.712C78.8797 24.3573 79.9463 25.68 81.973 25.68ZM103.723 30.32C100.779 30.2987 98.5497 29.52 97.035 27.984C95.5203 26.4267 94.699 24.3893 94.571 21.872C94.5283 20.72 94.507 19.696 94.507 18.8C94.507 17.8827 94.5283 16.8267 94.571 15.632C94.6563 14.032 95.0403 12.6133 95.723 11.376C96.427 10.1173 97.451 9.12533 98.795 8.4C100.139 7.65333 101.782 7.28 103.723 7.28C106.603 7.30133 108.822 8.08 110.379 9.616C111.936 11.152 112.779 13.1573 112.907 15.632C112.95 16.8267 112.971 17.8827 112.971 18.8C112.971 19.696 112.95 20.72 112.907 21.872C112.758 24.3893 111.926 26.4267 110.411 27.984C108.896 29.52 106.667 30.2987 103.723 30.32ZM103.723 25.68C104.768 25.68 105.547 25.3387 106.059 24.656C106.592 23.952 106.88 22.9707 106.923 21.712C106.966 21.0933 106.987 20.1013 106.987 18.736C106.987 17.3707 106.966 16.4 106.923 15.824C106.88 14.608 106.603 13.648 106.091 12.944C105.579 12.24 104.79 11.8773 103.723 11.856C102.678 11.8773 101.888 12.24 101.355 12.944C100.843 13.648 100.566 14.608 100.523 15.824C100.502 16.4 100.491 17.3707 100.491 18.736C100.491 20.1013 100.502 21.0933 100.523 21.712C100.63 24.3573 101.696 25.68 103.723 25.68Z" fill="#111826"/>
</svg>
