<svg width="126" height="34" viewBox="0 0 126 34" fill="none" xmlns="http://www.w3.org/2000/svg">
<path d="M97.552 20.008C97.488 20.008 97.432 19.984 97.384 19.936C97.336 19.888 97.312 19.832 97.312 19.768C97.312 19.736 97.324 19.688 97.348 19.624L101.452 9.784C101.516 9.64 101.62 9.568 101.764 9.568H102.232C102.296 9.568 102.352 9.592 102.4 9.64C102.448 9.688 102.472 9.744 102.472 9.808C102.472 9.864 102.464 9.912 102.448 9.952L98.332 19.792C98.268 19.936 98.164 20.008 98.02 20.008H97.552ZM103.531 19C103.451 19 103.383 18.976 103.327 18.928C103.279 18.872 103.255 18.804 103.255 18.724V13.036C103.255 12.956 103.279 12.892 103.327 12.844C103.383 12.788 103.451 12.76 103.531 12.76H104.071C104.151 12.76 104.215 12.788 104.263 12.844C104.319 12.892 104.347 12.956 104.347 13.036V13.456C104.763 12.912 105.343 12.64 106.087 12.64C106.975 12.64 107.603 13.008 107.971 13.744C108.163 13.408 108.435 13.14 108.787 12.94C109.139 12.74 109.535 12.64 109.975 12.64C110.631 12.64 111.167 12.864 111.583 13.312C111.999 13.76 112.207 14.408 112.207 15.256V18.724C112.207 18.804 112.179 18.872 112.123 18.928C112.075 18.976 112.011 19 111.931 19H111.367C111.287 19 111.219 18.976 111.163 18.928C111.115 18.872 111.091 18.804 111.091 18.724V15.364C111.091 14.74 110.959 14.292 110.695 14.02C110.439 13.748 110.099 13.612 109.675 13.612C109.299 13.612 108.975 13.752 108.703 14.032C108.431 14.304 108.295 14.748 108.295 15.364V18.724C108.295 18.804 108.267 18.872 108.211 18.928C108.163 18.976 108.099 19 108.019 19H107.455C107.375 19 107.307 18.976 107.251 18.928C107.203 18.872 107.179 18.804 107.179 18.724V15.364C107.179 14.74 107.043 14.292 106.771 14.02C106.507 13.748 106.171 13.612 105.763 13.612C105.387 13.612 105.063 13.752 104.791 14.032C104.519 14.304 104.383 14.744 104.383 15.352V18.724C104.383 18.804 104.355 18.872 104.299 18.928C104.251 18.976 104.187 19 104.107 19H103.531ZM116.415 19.12C115.591 19.12 114.931 18.868 114.435 18.364C113.947 17.852 113.679 17.156 113.631 16.276L113.619 15.868L113.631 15.472C113.687 14.608 113.959 13.92 114.447 13.408C114.943 12.896 115.595 12.64 116.403 12.64C117.291 12.64 117.979 12.924 118.467 13.492C118.955 14.052 119.199 14.812 119.199 15.772V15.976C119.199 16.056 119.171 16.124 119.115 16.18C119.067 16.228 119.003 16.252 118.923 16.252H114.771V16.36C114.795 16.88 114.951 17.324 115.239 17.692C115.535 18.052 115.923 18.232 116.403 18.232C116.771 18.232 117.071 18.16 117.303 18.016C117.543 17.864 117.719 17.708 117.831 17.548C117.903 17.452 117.955 17.396 117.987 17.38C118.027 17.356 118.095 17.344 118.191 17.344H118.779C118.851 17.344 118.911 17.364 118.959 17.404C119.007 17.444 119.031 17.5 119.031 17.572C119.031 17.748 118.919 17.96 118.695 18.208C118.479 18.456 118.171 18.672 117.771 18.856C117.379 19.032 116.927 19.12 116.415 19.12ZM118.059 15.424V15.388C118.059 14.836 117.907 14.388 117.603 14.044C117.307 13.692 116.907 13.516 116.403 13.516C115.899 13.516 115.499 13.692 115.203 14.044C114.915 14.388 114.771 14.836 114.771 15.388V15.424H118.059ZM114.771 11.86C114.651 11.86 114.591 11.812 114.591 11.716C114.591 11.652 114.635 11.576 114.723 11.488L115.827 10.384C115.899 10.304 115.963 10.256 116.019 10.24C116.075 10.216 116.143 10.204 116.223 10.204H116.583C116.663 10.204 116.727 10.216 116.775 10.24C116.831 10.256 116.899 10.304 116.979 10.384L118.083 11.488C118.171 11.576 118.215 11.652 118.215 11.716C118.215 11.812 118.155 11.86 118.035 11.86H117.723C117.579 11.86 117.467 11.832 117.387 11.776L116.403 11.092L115.419 11.776C115.339 11.832 115.227 11.86 115.083 11.86H114.771ZM122.794 19.12C122.234 19.12 121.762 19.032 121.378 18.856C121.002 18.672 120.718 18.464 120.526 18.232C120.342 18 120.25 17.808 120.25 17.656C120.25 17.576 120.278 17.516 120.334 17.476C120.398 17.428 120.462 17.404 120.526 17.404H121.066C121.146 17.404 121.218 17.444 121.282 17.524C121.474 17.748 121.682 17.924 121.906 18.052C122.13 18.18 122.43 18.244 122.806 18.244C123.222 18.244 123.558 18.164 123.814 18.004C124.078 17.836 124.21 17.608 124.21 17.32C124.21 17.128 124.154 16.972 124.042 16.852C123.938 16.724 123.754 16.616 123.49 16.528C123.234 16.432 122.85 16.328 122.338 16.216C121.642 16.064 121.146 15.844 120.85 15.556C120.562 15.268 120.418 14.896 120.418 14.44C120.418 14.136 120.506 13.848 120.682 13.576C120.866 13.296 121.13 13.072 121.474 12.904C121.826 12.728 122.246 12.64 122.734 12.64C123.246 12.64 123.682 12.724 124.042 12.892C124.402 13.06 124.67 13.26 124.846 13.492C125.03 13.716 125.122 13.904 125.122 14.056C125.122 14.128 125.094 14.188 125.038 14.236C124.99 14.284 124.93 14.308 124.858 14.308H124.354C124.258 14.308 124.178 14.268 124.114 14.188C123.986 14.036 123.874 13.92 123.778 13.84C123.69 13.752 123.558 13.676 123.382 13.612C123.214 13.548 122.998 13.516 122.734 13.516C122.35 13.516 122.054 13.6 121.846 13.768C121.638 13.928 121.534 14.14 121.534 14.404C121.534 14.572 121.578 14.716 121.666 14.836C121.754 14.948 121.922 15.052 122.17 15.148C122.426 15.244 122.794 15.344 123.274 15.448C124.034 15.608 124.57 15.84 124.882 16.144C125.202 16.44 125.362 16.82 125.362 17.284C125.362 17.628 125.262 17.94 125.062 18.22C124.862 18.5 124.566 18.72 124.174 18.88C123.79 19.04 123.33 19.12 122.794 19.12Z" fill="#111826" fill-opacity="0.6"/>
<path d="M3.04 30C2.82667 30 2.63467 29.9253 2.464 29.776C2.31467 29.6053 2.24 29.4133 2.24 29.2V8.4C2.24 8.16533 2.31467 7.97333 2.464 7.824C2.63467 7.67467 2.82667 7.6 3.04 7.6H11.744C14.5387 7.6 16.7147 8.24 18.272 9.52C19.8507 10.7787 20.64 12.5707 20.64 14.896C20.64 16.3893 20.288 17.6587 19.584 18.704C18.88 19.7493 17.9093 20.5493 16.672 21.104L21.056 28.976C21.12 29.104 21.152 29.2213 21.152 29.328C21.152 29.4987 21.0773 29.6587 20.928 29.808C20.8 29.936 20.6507 30 20.48 30H16.224C15.6053 30 15.168 29.712 14.912 29.136L11.264 22.096H8V29.2C8 29.4347 7.91467 29.6267 7.744 29.776C7.59467 29.9253 7.40267 30 7.168 30H3.04ZM11.68 17.552C12.6613 17.552 13.408 17.3173 13.92 16.848C14.432 16.3573 14.688 15.6853 14.688 14.832C14.688 13.9787 14.432 13.3067 13.92 12.816C13.4293 12.304 12.6827 12.048 11.68 12.048H8V17.552H11.68ZM31.437 33.2C31.2237 33.2 31.0317 33.1253 30.861 32.976C30.7117 32.8267 30.637 32.6347 30.637 32.4V30.192C29.0583 30 27.7037 29.5947 26.573 28.976C25.4637 28.3573 24.621 27.6107 24.045 26.736C23.4903 25.84 23.1917 24.8907 23.149 23.888C23.149 23.7173 23.213 23.568 23.341 23.44C23.4903 23.2907 23.661 23.216 23.853 23.216H27.885C28.141 23.216 28.3437 23.2693 28.493 23.376C28.6637 23.4613 28.8343 23.6 29.005 23.792C29.2823 24.3467 29.7197 24.8053 30.317 25.168C30.9357 25.5307 31.7677 25.712 32.813 25.712C34.029 25.712 34.957 25.52 35.597 25.136C36.237 24.752 36.557 24.2293 36.557 23.568C36.557 23.0987 36.3863 22.7147 36.045 22.416C35.725 22.1173 35.213 21.8507 34.509 21.616C33.805 21.3813 32.7597 21.1147 31.373 20.816C28.7917 20.304 26.8717 19.5253 25.613 18.48C24.3543 17.4347 23.725 15.952 23.725 14.032C23.725 12.3253 24.3437 10.8747 25.581 9.68C26.8183 8.464 28.5037 7.71733 30.637 7.44V5.2C30.637 4.96533 30.7117 4.77333 30.861 4.624C31.0317 4.47467 31.2237 4.4 31.437 4.4H34.093C34.3277 4.4 34.5197 4.47467 34.669 4.624C34.8183 4.77333 34.893 4.96533 34.893 5.2V7.504C36.301 7.73867 37.5063 8.18667 38.509 8.848C39.533 9.488 40.3117 10.224 40.845 11.056C41.3783 11.888 41.6663 12.7093 41.709 13.52C41.709 13.6907 41.645 13.8507 41.517 14C41.389 14.128 41.229 14.192 41.037 14.192H36.813C36.557 14.192 36.3437 14.1493 36.173 14.064C36.0237 13.9787 35.885 13.84 35.757 13.648C35.629 13.1573 35.277 12.7413 34.701 12.4C34.1463 12.0587 33.453 11.888 32.621 11.888C31.661 11.888 30.925 12.0587 30.413 12.4C29.901 12.7413 29.645 13.2427 29.645 13.904C29.645 14.352 29.7837 14.7253 30.061 15.024C30.3597 15.3227 30.829 15.6 31.469 15.856C32.1303 16.0907 33.069 16.336 34.285 16.592C36.269 16.9547 37.8477 17.4133 39.021 17.968C40.1943 18.5013 41.0583 19.1947 41.613 20.048C42.1677 20.9013 42.445 21.9893 42.445 23.312C42.445 25.1893 41.7623 26.7253 40.397 27.92C39.0317 29.1147 37.197 29.8613 34.893 30.16V32.4C34.893 32.6347 34.8183 32.8267 34.669 32.976C34.5197 33.1253 34.3277 33.2 34.093 33.2H31.437ZM60.5525 30.352C58.6325 30.352 56.9898 30.0533 55.6245 29.456C54.2592 28.8373 53.2138 28.016 52.4885 26.992C51.7845 25.968 51.4112 24.8587 51.3685 23.664C51.3685 23.472 51.4325 23.312 51.5605 23.184C51.6885 23.056 51.8485 22.992 52.0405 22.992H56.3285C56.8192 22.992 57.1605 23.1947 57.3525 23.6C57.9285 25.0293 59.0058 25.744 60.5845 25.744C61.5232 25.744 62.3125 25.456 62.9525 24.88C63.6138 24.2827 63.9445 23.4613 63.9445 22.416C63.9445 21.4773 63.6245 20.7093 62.9845 20.112C62.3658 19.5147 61.5658 19.216 60.5845 19.216C60.0298 19.216 59.5818 19.2907 59.2405 19.44C58.9205 19.568 58.5898 19.76 58.2485 20.016C57.8858 20.2933 57.5978 20.432 57.3845 20.432H53.1925C53.0005 20.432 52.8298 20.368 52.6805 20.24C52.5525 20.0907 52.4885 19.92 52.4885 19.728L53.6405 8.56C53.6618 8.26133 53.7685 8.02667 53.9605 7.856C54.1738 7.68533 54.4192 7.6 54.6965 7.6H67.5285C67.7632 7.6 67.9552 7.67467 68.1045 7.824C68.2752 7.97333 68.3605 8.16533 68.3605 8.4V11.408C68.3605 11.6427 68.2752 11.8347 68.1045 11.984C67.9552 12.1333 67.7632 12.208 67.5285 12.208H58.2485L57.8325 16.336C58.3658 15.9733 58.9525 15.7067 59.5925 15.536C60.2325 15.344 61.0645 15.248 62.0885 15.248C63.4325 15.248 64.7018 15.5573 65.8965 16.176C67.0912 16.7733 68.0405 17.6267 68.7445 18.736C69.4698 19.8453 69.8325 21.1147 69.8325 22.544C69.8325 24.0587 69.4592 25.4133 68.7125 26.608C67.9658 27.7813 66.8885 28.6987 65.4805 29.36C64.0938 30.0213 62.4512 30.352 60.5525 30.352ZM81.848 30.32C78.904 30.2987 76.6747 29.52 75.16 27.984C73.6453 26.4267 72.824 24.3893 72.696 21.872C72.6533 20.72 72.632 19.696 72.632 18.8C72.632 17.8827 72.6533 16.8267 72.696 15.632C72.7813 14.032 73.1653 12.6133 73.848 11.376C74.552 10.1173 75.576 9.12533 76.92 8.4C78.264 7.65333 79.9067 7.28 81.848 7.28C84.728 7.30133 86.9467 8.08 88.504 9.616C90.0613 11.152 90.904 13.1573 91.032 15.632C91.0747 16.8267 91.096 17.8827 91.096 18.8C91.096 19.696 91.0747 20.72 91.032 21.872C90.8827 24.3893 90.0507 26.4267 88.536 27.984C87.0213 29.52 84.792 30.2987 81.848 30.32ZM81.848 25.68C82.8933 25.68 83.672 25.3387 84.184 24.656C84.7173 23.952 85.0053 22.9707 85.048 21.712C85.0907 21.0933 85.112 20.1013 85.112 18.736C85.112 17.3707 85.0907 16.4 85.048 15.824C85.0053 14.608 84.728 13.648 84.216 12.944C83.704 12.24 82.9147 11.8773 81.848 11.856C80.8027 11.8773 80.0133 12.24 79.48 12.944C78.968 13.648 78.6907 14.608 78.648 15.824C78.6267 16.4 78.616 17.3707 78.616 18.736C78.616 20.1013 78.6267 21.0933 78.648 21.712C78.7547 24.3573 79.8213 25.68 81.848 25.68Z" fill="#111826"/>
</svg>
