<svg width="155" height="38" viewBox="0 0 155 38" fill="none" xmlns="http://www.w3.org/2000/svg">
<path d="M13.7956 10.0269C12.4651 8.98067 10.5267 9.0703 9.30046 10.2965C8.07426 11.5227 7.98463 13.4612 9.03089 14.7916C5.95577 21.3258 10.7512 28.9004 17.9993 28.9004C19.5016 28.9004 20.927 28.5645 22.2037 27.963C23.5371 29.0118 25.475 28.9172 26.6981 27.6941C27.9243 26.4679 28.0139 24.5293 26.9677 23.199C27.5685 21.9223 27.9044 20.497 27.9044 18.9953C27.9043 11.7445 20.3269 6.95314 13.7956 10.0269ZM11.6997 11.2949C12.9486 11.2949 13.5642 12.8123 12.6902 13.6862C12.1464 14.23 11.2566 14.2343 10.7085 13.6862C9.83899 12.8166 10.4401 11.2949 11.6997 11.2949ZM24.2251 26.6936C23.0181 26.6312 22.4532 25.1595 23.3083 24.3043C23.8474 23.7639 24.7362 23.7505 25.2901 24.3043C26.1851 25.1994 25.5167 26.763 24.2251 26.6936ZM25.298 22.0531C22.6937 21.2559 20.2591 23.6871 21.0571 26.2939C14.5312 29.0369 7.97573 22.4203 10.7006 15.9374C13.3096 16.7377 15.7374 14.2965 14.9414 11.6966C21.4213 8.97296 28.0419 15.5247 25.298 22.0531Z" fill="#111826" stroke="black"/>
<path d="M17.9992 2C13.4596 2 9.19153 3.76792 5.98169 6.97775C-0.660465 13.62 -0.660664 24.3705 5.98169 31.0128C9.19159 34.2227 13.4596 35.9906 17.9992 35.9906C27.3926 35.9906 34.9945 28.3894 34.9945 18.9953C34.9945 9.60184 27.3933 2 17.9992 2ZM17.9992 33.999C9.72594 33.999 2.99555 27.2686 2.99555 18.9953C2.99555 10.722 9.72594 3.9916 17.9992 3.9916C26.2725 3.9916 33.0029 10.722 33.0029 18.9953C33.0029 27.2686 26.2725 33.999 17.9992 33.999Z" fill="#111826" stroke="black"/>
<path d="M17.9992 15.4562C16.0473 15.4562 14.46 17.0435 14.46 18.9953C14.46 20.9472 16.0473 22.5345 17.9992 22.5345C19.9509 22.5345 21.5383 20.9472 21.5383 18.9953C21.5383 17.0435 19.9509 15.4562 17.9992 15.4562ZM17.9992 20.5428C17.1461 20.5428 16.4517 19.8484 16.4517 18.9953C16.4517 18.1423 17.1461 17.4478 17.9992 17.4478C18.8522 17.4478 19.5467 18.1423 19.5467 18.9953C19.5467 19.8484 18.8522 20.5428 17.9992 20.5428Z" fill="#111826" stroke="black"/>
<path d="M53.2669 30.32C51.3683 30.32 49.7363 30.032 48.3709 29.456C47.0056 28.88 45.9709 28.1227 45.2669 27.184C44.5629 26.2453 44.1896 25.232 44.1469 24.144C44.1469 23.952 44.2109 23.792 44.3389 23.664C44.4669 23.536 44.6269 23.472 44.8189 23.472H47.6669C47.9229 23.472 48.1149 23.5253 48.2429 23.632C48.3923 23.7173 48.5309 23.8667 48.6589 24.08C48.8723 24.8053 49.3629 25.4133 50.1309 25.904C50.8989 26.3947 51.9443 26.64 53.2669 26.64C54.7816 26.64 55.9229 26.3947 56.6909 25.904C57.4589 25.392 57.8429 24.688 57.8429 23.792C57.8429 23.1947 57.6403 22.704 57.2349 22.32C56.8509 21.936 56.2643 21.6053 55.4749 21.328C54.7069 21.0507 53.5549 20.7093 52.0189 20.304C49.5016 19.7067 47.6563 18.9173 46.4829 17.936C45.3309 16.9333 44.7549 15.5147 44.7549 13.68C44.7549 12.4427 45.0856 11.344 45.7469 10.384C46.4296 9.424 47.4003 8.66667 48.6589 8.112C49.9389 7.55733 51.4216 7.28 53.1069 7.28C54.8563 7.28 56.3709 7.58933 57.6509 8.208C58.9309 8.82667 59.9016 9.60533 60.5629 10.544C61.2456 11.4613 61.6083 12.3787 61.6509 13.296C61.6509 13.488 61.5869 13.648 61.4589 13.776C61.3309 13.904 61.1709 13.968 60.9789 13.968H58.0029C57.5549 13.968 57.2456 13.7653 57.0749 13.36C56.9469 12.6773 56.5203 12.112 55.7949 11.664C55.0696 11.1947 54.1736 10.96 53.1069 10.96C51.9123 10.96 50.9736 11.184 50.2909 11.632C49.6083 12.08 49.2669 12.7307 49.2669 13.584C49.2669 14.1813 49.4376 14.672 49.7789 15.056C50.1203 15.44 50.6536 15.7813 51.3789 16.08C52.1256 16.3787 53.1923 16.7093 54.5789 17.072C56.4563 17.4987 57.9496 17.9787 59.0589 18.512C60.1896 19.0453 61.0216 19.7173 61.5549 20.528C62.0883 21.3387 62.3549 22.3733 62.3549 23.632C62.3549 24.9973 61.9709 26.192 61.2029 27.216C60.4563 28.2187 59.3896 28.9867 58.0029 29.52C56.6376 30.0533 55.0589 30.32 53.2669 30.32ZM66.7902 30C66.5769 30 66.3955 29.9253 66.2462 29.776C66.0969 29.6267 66.0222 29.4453 66.0222 29.232V8.368C66.0222 8.13333 66.0969 7.952 66.2462 7.824C66.3955 7.67467 66.5769 7.6 66.7902 7.6H69.7982C70.0329 7.6 70.2142 7.67467 70.3422 7.824C70.4915 7.952 70.5662 8.13333 70.5662 8.368V29.232C70.5662 29.4453 70.4915 29.6267 70.3422 29.776C70.2142 29.9253 70.0329 30 69.7982 30H66.7902ZM83.3607 30.32C81.462 30.32 79.83 30.032 78.4647 29.456C77.0994 28.88 76.0647 28.1227 75.3607 27.184C74.6567 26.2453 74.2834 25.232 74.2407 24.144C74.2407 23.952 74.3047 23.792 74.4327 23.664C74.5607 23.536 74.7207 23.472 74.9127 23.472H77.7607C78.0167 23.472 78.2087 23.5253 78.3367 23.632C78.486 23.7173 78.6247 23.8667 78.7527 24.08C78.966 24.8053 79.4567 25.4133 80.2247 25.904C80.9927 26.3947 82.038 26.64 83.3607 26.64C84.8754 26.64 86.0167 26.3947 86.7847 25.904C87.5527 25.392 87.9367 24.688 87.9367 23.792C87.9367 23.1947 87.734 22.704 87.3287 22.32C86.9447 21.936 86.358 21.6053 85.5687 21.328C84.8007 21.0507 83.6487 20.7093 82.1127 20.304C79.5954 19.7067 77.75 18.9173 76.5767 17.936C75.4247 16.9333 74.8487 15.5147 74.8487 13.68C74.8487 12.4427 75.1794 11.344 75.8407 10.384C76.5234 9.424 77.494 8.66667 78.7527 8.112C80.0327 7.55733 81.5154 7.28 83.2007 7.28C84.95 7.28 86.4647 7.58933 87.7447 8.208C89.0247 8.82667 89.9954 9.60533 90.6567 10.544C91.3394 11.4613 91.702 12.3787 91.7447 13.296C91.7447 13.488 91.6807 13.648 91.5527 13.776C91.4247 13.904 91.2647 13.968 91.0727 13.968H88.0967C87.6487 13.968 87.3394 13.7653 87.1687 13.36C87.0407 12.6773 86.614 12.112 85.8887 11.664C85.1634 11.1947 84.2674 10.96 83.2007 10.96C82.006 10.96 81.0674 11.184 80.3847 11.632C79.702 12.08 79.3607 12.7307 79.3607 13.584C79.3607 14.1813 79.5314 14.672 79.8727 15.056C80.214 15.44 80.7474 15.7813 81.4727 16.08C82.2194 16.3787 83.286 16.7093 84.6727 17.072C86.55 17.4987 88.0434 17.9787 89.1527 18.512C90.2834 19.0453 91.1154 19.7173 91.6487 20.528C92.182 21.3387 92.4487 22.3733 92.4487 23.632C92.4487 24.9973 92.0647 26.192 91.2967 27.216C90.55 28.2187 89.4834 28.9867 88.0967 29.52C86.7314 30.0533 85.1527 30.32 83.3607 30.32ZM101.562 30C101.349 30 101.167 29.9253 101.018 29.776C100.869 29.6267 100.794 29.4453 100.794 29.232V11.536H94.8739C94.6606 11.536 94.4793 11.4613 94.3299 11.312C94.1806 11.1627 94.1059 10.9813 94.1059 10.768V8.4C94.1059 8.16533 94.1699 7.97333 94.2979 7.824C94.4473 7.67467 94.6393 7.6 94.8739 7.6H111.194C111.429 7.6 111.621 7.67467 111.77 7.824C111.919 7.97333 111.994 8.16533 111.994 8.4V10.768C111.994 10.9813 111.919 11.1627 111.77 11.312C111.621 11.4613 111.429 11.536 111.194 11.536H105.306V29.232C105.306 29.4453 105.231 29.6267 105.082 29.776C104.933 29.9253 104.741 30 104.506 30H101.562ZM123.443 30.32C120.541 30.32 118.28 29.584 116.659 28.112C115.037 26.64 114.184 24.4533 114.099 21.552C114.077 20.9333 114.067 20.0267 114.067 18.832C114.067 17.616 114.077 16.6987 114.099 16.08C114.184 13.2427 115.059 11.0667 116.723 9.552C118.387 8.03733 120.627 7.28 123.443 7.28C126.259 7.28 128.499 8.03733 130.163 9.552C131.848 11.0667 132.733 13.2427 132.819 16.08C132.861 17.3173 132.883 18.2347 132.883 18.832C132.883 19.408 132.861 20.3147 132.819 21.552C132.712 24.4533 131.848 26.64 130.227 28.112C128.605 29.584 126.344 30.32 123.443 30.32ZM123.443 26.64C124.872 26.64 126.013 26.2133 126.867 25.36C127.72 24.4853 128.179 23.1627 128.243 21.392C128.285 20.112 128.307 19.248 128.307 18.8C128.307 18.3093 128.285 17.4453 128.243 16.208C128.179 14.4373 127.72 13.1253 126.867 12.272C126.013 11.3973 124.872 10.96 123.443 10.96C122.035 10.96 120.904 11.3973 120.051 12.272C119.197 13.1253 118.739 14.4373 118.675 16.208C118.653 16.8267 118.643 17.6907 118.643 18.8C118.643 19.888 118.653 20.752 118.675 21.392C118.739 23.1627 119.187 24.4853 120.019 25.36C120.872 26.2133 122.013 26.64 123.443 26.64ZM137.853 30C137.639 30 137.458 29.9253 137.309 29.776C137.159 29.6267 137.085 29.4453 137.085 29.232V8.4C137.085 8.16533 137.149 7.97333 137.277 7.824C137.426 7.67467 137.618 7.6 137.853 7.6H140.669C140.903 7.6 141.095 7.67467 141.245 7.824C141.394 7.97333 141.469 8.16533 141.469 8.4V15.888L148.701 8.176C148.978 7.792 149.394 7.6 149.949 7.6H153.117C153.287 7.6 153.437 7.664 153.565 7.792C153.714 7.92 153.789 8.08 153.789 8.272C153.789 8.42133 153.746 8.54933 153.661 8.656L144.861 18.32L154.269 28.912C154.375 29.04 154.429 29.1787 154.429 29.328C154.429 29.52 154.354 29.68 154.205 29.808C154.077 29.936 153.927 30 153.757 30H150.461C149.927 30 149.511 29.808 149.213 29.424L141.469 20.944V29.232C141.469 29.4667 141.394 29.6587 141.245 29.808C141.095 29.936 140.903 30 140.669 30H137.853Z" fill="#111826"/>
</svg>
