<svg width="19" height="18" viewBox="0 0 19 18" fill="none" xmlns="http://www.w3.org/2000/svg">
<path d="M11.247 11.007C10.6454 11.4921 9.89587 11.7566 9.12305 11.7566C8.35023 11.7566 7.60068 11.4921 6.99905 11.007C6.81526 10.8542 6.5783 10.7807 6.34032 10.8027C6.10233 10.8246 5.88281 10.9402 5.73005 11.124C5.57729 11.3078 5.50379 11.5447 5.52573 11.7827C5.54767 12.0207 5.66325 12.2402 5.84705 12.393C6.76625 13.1603 7.92566 13.5807 9.12305 13.5807C10.3204 13.5807 11.4798 13.1603 12.399 12.393C12.5828 12.2402 12.6984 12.0207 12.7204 11.7827C12.7423 11.5447 12.6688 11.3078 12.516 11.124C12.4404 11.033 12.3476 10.9578 12.2429 10.9026C12.1382 10.8475 12.0236 10.8135 11.9058 10.8027C11.6678 10.7807 11.4308 10.8542 11.247 11.007ZM6.61205 7.686C6.78068 7.85362 7.00878 7.94771 7.24655 7.94771C7.48432 7.94771 7.71242 7.85362 7.88105 7.686C8.04868 7.51737 8.14276 7.28927 8.14276 7.0515C8.14276 6.81373 8.04868 6.58562 7.88105 6.417C7.366 5.92829 6.68306 5.65585 5.97305 5.65585C5.26304 5.65585 4.5801 5.92829 4.06505 6.417C3.97084 6.49768 3.89432 6.59697 3.8403 6.70863C3.78628 6.82028 3.75592 6.9419 3.75113 7.06585C3.74634 7.1898 3.76723 7.3134 3.81248 7.42889C3.85772 7.54438 3.92636 7.64927 4.01406 7.73698C4.10177 7.82469 4.20667 7.89332 4.32216 7.93857C4.43765 7.98382 4.56125 8.0047 4.6852 7.99992C4.80914 7.99513 4.93076 7.96477 5.04242 7.91075C5.15408 7.85673 5.25337 7.78021 5.33405 7.686C5.41772 7.60164 5.51726 7.53469 5.62693 7.489C5.7366 7.4433 5.85424 7.41978 5.97305 7.41978C6.09186 7.41978 6.2095 7.4433 6.31917 7.489C6.42884 7.53469 6.52838 7.60164 6.61205 7.686ZM14.181 6.417C13.666 5.92829 12.9831 5.65585 12.273 5.65585C11.563 5.65585 10.8801 5.92829 10.365 6.417C10.2176 6.58917 10.1406 6.81064 10.1493 7.03715C10.1581 7.26365 10.252 7.47852 10.4122 7.6388C10.5725 7.79909 10.7874 7.89299 11.0139 7.90174C11.2404 7.91049 11.4619 7.83344 11.634 7.686C11.7177 7.60164 11.8173 7.53469 11.9269 7.489C12.0366 7.4433 12.1542 7.41978 12.273 7.41978C12.3919 7.41978 12.5095 7.4433 12.6192 7.489C12.7288 7.53469 12.8284 7.60164 12.912 7.686C13.0807 7.85362 13.3088 7.94771 13.5465 7.94771C13.7843 7.94771 14.0124 7.85362 14.181 7.686C14.3487 7.51737 14.4428 7.28927 14.4428 7.0515C14.4428 6.81373 14.3487 6.58562 14.181 6.417ZM9.12305 0C7.34302 0 5.60296 0.527841 4.12292 1.51677C2.64288 2.50571 1.48932 3.91131 0.808135 5.55585C0.126946 7.20038 -0.0512836 9.00998 0.295983 10.7558C0.64325 12.5016 1.50042 14.1053 2.75909 15.364C4.01776 16.6226 5.62141 17.4798 7.36724 17.8271C9.11307 18.1743 10.9227 17.9961 12.5672 17.3149C14.2117 16.6337 15.6173 15.4802 16.6063 14.0001C17.5952 12.5201 18.123 10.78 18.123 9C18.123 7.8181 17.8903 6.64778 17.438 5.55585C16.9857 4.46392 16.3227 3.47177 15.487 2.63604C14.6513 1.80031 13.6591 1.13738 12.5672 0.685084C11.4753 0.232792 10.3049 0 9.12305 0ZM9.12305 16.2C7.69902 16.2 6.30698 15.7777 5.12294 14.9866C3.93891 14.1954 3.01607 13.0709 2.47112 11.7553C1.92617 10.4397 1.78358 8.99201 2.0614 7.59535C2.33921 6.19868 3.02494 4.91577 4.03188 3.90883C5.03882 2.90189 6.32174 2.21616 7.7184 1.93835C9.11506 1.66053 10.5627 1.80312 11.8784 2.34807C13.194 2.89302 14.3185 3.81586 15.1096 4.99989C15.9008 6.18393 16.323 7.57597 16.323 9C16.323 10.9096 15.5645 12.7409 14.2142 14.0912C12.864 15.4414 11.0326 16.2 9.12305 16.2Z" fill="#4C5D73"/>
</svg>
