<svg width="67" height="67" viewBox="0 0 67 67" fill="none" xmlns="http://www.w3.org/2000/svg">
<rect width="67" height="67" rx="33.5" fill="#304F8C" fill-opacity="0.1"/>
<path d="M23 34V39C23 39.2652 23.1054 39.5196 23.2929 39.7071C23.4804 39.8946 23.7348 40 24 40H25C25 40.7956 25.3161 41.5587 25.8787 42.1213C26.4413 42.6839 27.2044 43 28 43C28.7956 43 29.5587 42.6839 30.1213 42.1213C30.6839 41.5587 31 40.7956 31 40H37C37 40.7956 37.3161 41.5587 37.8787 42.1213C38.4413 42.6839 39.2044 43 40 43C40.7956 43 41.5587 42.6839 42.1213 42.1213C42.6839 41.5587 43 40.7956 43 40H44C44.2652 40 44.5196 39.8946 44.7071 39.7071C44.8946 39.5196 45 39.2652 45 39V27C45 26.2044 44.6839 25.4413 44.1213 24.8787C43.5587 24.3161 42.7956 24 42 24H33C32.2044 24 31.4413 24.3161 30.8787 24.8787C30.3161 25.4413 30 26.2044 30 27V29H28C27.5343 29 27.0749 29.1084 26.6584 29.3167C26.2418 29.525 25.8794 29.8274 25.6 30.2L23.2 33.4C23.1708 33.4435 23.1472 33.4905 23.13 33.54L23.07 33.65C23.0259 33.7615 23.0022 33.8801 23 34ZM39 40C39 39.8022 39.0586 39.6089 39.1685 39.4444C39.2784 39.28 39.4346 39.1518 39.6173 39.0761C39.8 39.0004 40.0011 38.9806 40.1951 39.0192C40.3891 39.0578 40.5673 39.153 40.7071 39.2929C40.847 39.4327 40.9422 39.6109 40.9808 39.8049C41.0194 39.9989 40.9996 40.2 40.9239 40.3827C40.8482 40.5654 40.72 40.7216 40.5556 40.8315C40.3911 40.9414 40.1978 41 40 41C39.7348 41 39.4804 40.8946 39.2929 40.7071C39.1054 40.5196 39 40.2652 39 40ZM32 27C32 26.7348 32.1054 26.4804 32.2929 26.2929C32.4804 26.1054 32.7348 26 33 26H42C42.2652 26 42.5196 26.1054 42.7071 26.2929C42.8946 26.4804 43 26.7348 43 27V38H42.22C41.9388 37.6906 41.5961 37.4435 41.2138 37.2743C40.8315 37.1052 40.418 37.0178 40 37.0178C39.582 37.0178 39.1685 37.1052 38.7862 37.2743C38.4039 37.4435 38.0612 37.6906 37.78 38H32V27ZM30 33H26L27.2 31.4C27.2931 31.2758 27.4139 31.175 27.5528 31.1056C27.6916 31.0361 27.8448 31 28 31H30V33ZM27 40C27 39.8022 27.0586 39.6089 27.1685 39.4444C27.2784 39.28 27.4346 39.1518 27.6173 39.0761C27.8 39.0004 28.0011 38.9806 28.1951 39.0192C28.3891 39.0578 28.5673 39.153 28.7071 39.2929C28.847 39.4327 28.9422 39.6109 28.9808 39.8049C29.0194 39.9989 28.9996 40.2 28.9239 40.3827C28.8482 40.5654 28.72 40.7216 28.5556 40.8315C28.3911 40.9414 28.1978 41 28 41C27.7348 41 27.4804 40.8946 27.2929 40.7071C27.1054 40.5196 27 40.2652 27 40ZM25 35H30V37.78C29.4098 37.2526 28.6351 36.9797 27.8447 37.0209C27.0543 37.0621 26.3121 37.414 25.78 38H25V35Z" fill="#4C5D73"/>
</svg>
